<?xml version="1.0" encoding="UTF-8"?>
<svg width="46px" height="60px" viewBox="0 0 46 60" version="1.1" xmlns="http://www.w3.org/2000/svg" xmlns:xlink="http://www.w3.org/1999/xlink">
    <!-- Generator: Sketch 43.1 (39012) - http://www.bohemiancoding.com/sketch -->
    <title>Fill 1</title>
    <desc>Created with Sketch.</desc>
    <defs></defs>
    <g id="Page-1" stroke="none" stroke-width="1" fill="none" fill-rule="evenodd">
        <g id="Desktop-HD-Copy-5" transform="translate(-309.000000, -3858.000000)" fill="#941d80">
            <g id="Fill-1" transform="translate(309.000000, 3858.000000)">
                <path d="M15.9205102,6.42844898 C15.9205102,9.306 18.2470408,11.6325306 21.1245918,11.6325306 C24.0021429,11.6325306 26.3286735,9.306 26.3286735,6.42844898 C26.3286735,3.55089796 24.0021429,1.22436735 21.1245918,1.22436735 C18.2470408,1.22436735 15.9205102,3.55089796 15.9205102,6.42844898 M14.6960204,6.42844898 C14.6960204,2.87742857 17.5735714,-0.00012244898 21.1245918,-0.00012244898 C24.6756122,-0.00012244898 27.5531633,2.87742857 27.5531633,6.42844898 C27.5531633,9.97946939 24.6756122,12.8570204 21.1245918,12.8570204 C17.5735714,12.8570204 14.6960204,9.97946939 14.6960204,6.42844898 M9.61438776,14.8162041 C5.08377551,14.8162041 1.34908163,18.550898 1.34908163,23.0815102 C1.34908163,27.6121224 5.08377551,31.3468163 9.61438776,31.3468163 C14.145,31.3468163 17.8796939,27.6121224 17.8796939,23.0815102 C17.8796939,18.550898 14.145,14.8162041 9.61438776,14.8162041 M9.61438776,13.5917143 C14.8184694,13.5917143 19.1041837,17.8774286 19.1041837,23.0815102 C19.1041837,28.2855918 14.8184694,32.5713061 9.61438776,32.5713061 C4.41030612,32.5713061 0.124591837,28.2855918 0.124591837,23.0815102 C0.124591837,17.8774286 4.34908163,13.5917143 9.61438776,13.5917143 M23.267449,57.7345714 L23.267449,56.6943673 C21.7980612,56.8162041 20.267449,56.8162041 18.7980612,56.6325306 L18.7980612,57.7345714 C18.7980612,58.7141633 18.0021429,59.5100816 17.022551,59.5100816 L9.79806122,59.5100816 C8.87969388,59.5100816 8.08377551,58.7753878 8.02255102,57.8570204 L8.02255102,57.183551 C7.96132653,56.1427347 7.65520408,53.3270204 5.51234694,51.1841633 C4.16540816,49.7753878 2.94091837,47.9386531 1.90010204,45.7345714 C1.28785714,44.5713061 0.798061224,43.2855918 0.491938776,42.0004898 C-0.0590816327,40.2243673 0.00214285714,38.0815102 0.00214285714,38.0202857 C0.00214285714,37.1019184 0.0633673469,36.183551 0.247040816,35.2651837 C0.308265306,34.9590612 0.614387755,34.7141633 0.981734694,34.7753878 C1.28785714,34.8366122 1.5327551,35.1427347 1.47153061,35.5100816 C1.34908163,36.3672245 1.28785714,37.2243673 1.28785714,38.0815102 C1.28785714,38.1427347 1.22663265,40.1019184 1.71642857,41.6943673 L1.71642857,41.7549796 C2.02255102,42.9794694 2.45112245,44.1433469 3.00214286,45.2447755 C3.98173469,47.3264082 5.08377551,49.0413061 6.3694898,50.3876327 C8.81846939,52.8978367 9.18581633,56.0202857 9.24704082,57.2447755 L9.24704082,57.7957959 C9.24704082,58.1019184 9.49193878,58.3468163 9.79806122,58.3468163 L16.9613265,58.3468163 C17.267449,58.3468163 17.5123469,58.1019184 17.5123469,57.7957959 L17.5123469,56.0202857 C17.5123469,55.8366122 17.5735714,55.6529388 17.6960204,55.5304898 C17.8184694,55.4080408 18.0021429,55.3468163 18.1858163,55.4080408 C20.022551,55.6529388 21.8592857,55.6529388 23.7572449,55.4698776 C23.9409184,55.4698776 24.1239796,55.5304898 24.2470408,55.6529388 C24.3694898,55.776 24.430102,55.9590612 24.430102,56.0821224 L24.430102,57.7957959 C24.430102,58.1019184 24.6756122,58.3468163 24.9817347,58.3468163 L32.145,58.3468163 C32.4511224,58.3468163 32.6954082,58.1019184 32.6954082,57.7957959 L32.6954082,56.0202857 C32.6954082,55.2855918 32.9409184,52.7753878 35.3286735,50.6325306 L35.6347959,50.3876327 C36.0021429,49.9596735 39.8592857,45.428449 40.7164286,42.6127347 C40.7776531,42.3672245 41.022551,42.183551 41.3286735,42.183551 L42.8592857,42.183551 C43.7158163,42.183551 44.4511224,41.5100816 44.4511224,40.5917143 L44.4511224,35.2039592 C44.4511224,34.3468163 43.7776531,33.6121224 42.8592857,33.6121224 L41.2668367,33.6121224 C40.9607143,33.6121224 40.7776531,33.4896735 40.6545918,33.183551 C39.6756122,30.1223265 37.6552041,27.306 34.9613265,25.1631429 C34.8382653,25.0406939 34.7164286,24.8570204 34.7164286,24.7345714 L34.7164286,24.550898 C34.2260204,22.7141633 34.5321429,20.7549796 35.7566327,18.8570204 C35.8796939,18.6121224 35.8796939,18.3672245 35.7566327,18.1223265 C35.6347959,17.8774286 35.389898,17.7549796 35.0837755,17.8162041 C31.5939796,18.2447755 29.7572449,19.9590612 28.8388776,21.306 C28.7158163,21.550898 28.4096939,21.6121224 28.1654082,21.550898 C26.8184694,21.1223265 25.4715306,20.8162041 24.0633673,20.6937551 C23.7572449,20.6325306 23.5117347,20.3264082 23.5117347,20.0202857 C23.5735714,19.7141633 23.8796939,19.4692653 24.1858163,19.4692653 C25.5327551,19.6529388 26.8184694,19.8978367 28.1035714,20.2651837 C29.2062245,18.7345714 31.2878571,17.0202857 34.9613265,16.5917143 C35.6960204,16.4692653 36.4307143,16.8366122 36.7980612,17.4488571 C37.2266327,18.061102 37.2266327,18.8570204 36.7980612,19.4692653 C35.7566327,21.1223265 35.4505102,22.7141633 35.8796939,24.183551 C35.8796939,24.2447755 35.8796939,24.306 35.9409184,24.3672245 C38.6347959,26.5713061 40.5939796,29.3264082 41.6960204,32.3876327 L42.8592857,32.3876327 C44.389898,32.3876327 45.6756122,33.6121224 45.6756122,35.2039592 L45.6756122,40.5917143 C45.6756122,42.1223265 44.4511224,43.4080408 42.8592857,43.4080408 L41.8184694,43.4080408 C40.6545918,46.5304898 36.7980612,50.9998776 36.6143878,51.1841633 L36.5531633,51.2447755 L36.2470408,51.4902857 C34.1654082,53.3270204 34.0429592,55.5304898 34.0429592,55.9590612 L34.0429592,57.7345714 C34.0429592,58.7141633 33.2470408,59.5100816 32.267449,59.5100816 L25.0423469,59.5100816 C24.0633673,59.5100816 23.267449,58.7141633 23.267449,57.7345714"></path>
            </g>
        </g>
    </g>
</svg>