<?xml version="1.0" encoding="UTF-8"?>
<svg width="53px" height="60px" viewBox="0 0 53 60" version="1.1" xmlns="http://www.w3.org/2000/svg" xmlns:xlink="http://www.w3.org/1999/xlink">
    <!-- Generator: Sketch 43.1 (39012) - http://www.bohemiancoding.com/sketch -->
    <title>Fill 1</title>
    <desc>Created with Sketch.</desc>
    <defs></defs>
    <g id="Page-1" stroke="none" stroke-width="1" fill="none" fill-rule="evenodd">
        <g id="Desktop-HD-Copy-5" transform="translate(-309.000000, -3985.000000)" fill="#941d80">
            <g id="Fill-1" transform="translate(309.000000, 3985.000000)">
                <path d="M31.7900575,27.4898571 C30.8677083,25.224551 28.6540702,23.7551633 26.1944722,23.7551633 C25.3957178,23.7551633 24.5957335,23.9388367 23.8584691,24.2449592 C20.7839716,25.5306735 19.307598,29.0816939 20.5988869,32.1429184 C21.5212361,34.4082245 23.7348743,35.8776122 26.1944722,35.8776122 C26.9938415,35.8776122 27.7932109,35.6939388 28.5310903,35.3878163 C31.6055877,34.102102 33.0819614,30.6123061 31.7900575,27.4898571 M32.9583666,27.0612857 C34.4956153,30.7959796 32.7124068,35.0204694 29.0230099,36.5510816 C28.1006606,36.9184286 27.1783114,37.102102 26.2559622,37.102102 C23.3044446,37.102102 20.6603768,35.3265918 19.4920678,32.6327143 C17.9548191,28.8980204 19.7380276,24.6735306 23.4274245,23.1429184 C24.3497737,22.7755714 25.272123,22.591898 26.1944722,22.591898 C29.1459898,22.5306735 31.7900575,24.3061837 32.9583666,27.0612857 M42.3663287,25.1633265 C42.4284336,24.9184286 42.4284336,24.7347551 42.3663287,24.4898571 L41.3831045,22.1633265 C41.1986346,21.7347551 40.7061001,21.4898571 40.2141805,21.6735306 L38.0620323,22.5306735 C37.8166874,22.6531224 37.5092377,22.5306735 37.3241529,22.2857755 C36.3403138,20.8163878 35.1105148,19.591898 33.634756,18.6123061 C33.3894111,18.4286327 33.2658163,18.1225102 33.3894111,17.8776122 L34.2496555,15.7347551 C34.3117603,15.4898571 34.3117603,15.3061837 34.2496555,15.0612857 C34.1881655,14.8163878 34.0043106,14.6939388 33.7577359,14.5714898 L31.4211179,13.591898 C30.9906882,13.4082245 30.4378936,13.6531224 30.2528088,14.0816939 L29.5155443,16.347 C29.3925644,16.591898 29.0851147,16.7755714 28.83854,16.7143469 C27.1168214,16.347 25.3336129,16.347 23.6118944,16.7143469 C23.3044446,16.7755714 23.0584848,16.591898 22.9361198,16.347 L22.0746456,14.2041429 C21.8901758,13.7755714 21.3988711,13.5306735 20.9063366,13.7143469 L18.5697186,14.6939388 C18.1392889,14.8776122 17.8933291,15.3674082 18.077799,15.8572041 L18.9392732,18.0000612 C19.0616382,18.2449592 18.9392732,18.6123061 18.6926985,18.7347551 C17.2169397,19.7143469 15.9871407,20.9388367 15.0033015,22.4082245 C14.8188317,22.6531224 14.5113819,22.7143469 14.2654222,22.6531224 L12.1132739,21.7959796 C11.6828443,21.6123061 11.1294348,21.8572041 10.9455798,22.2857755 L9.96112574,24.6123061 C9.89963579,24.8572041 9.89963579,25.0408776 9.96112574,25.2857755 C10.0232306,25.5306735 10.2070855,25.6531224 10.4530453,25.7755714 L12.6051935,26.6327143 C12.8511533,26.7551633 13.0356232,27.0612857 12.9741332,27.3061837 C12.6051935,29.0204694 12.6051935,30.7959796 12.9741332,32.5102653 C13.0356232,32.8163878 12.8511533,33.0612857 12.6051935,33.1837347 L10.4530453,34.0408776 C10.0232306,34.224551 9.77665589,34.7143469 9.96112574,35.2041429 L10.9455798,37.5306735 C11.1294348,37.9592449 11.6213544,38.2041429 12.1132739,38.0204694 L14.2654222,37.1633265 C14.5113819,37.0408776 14.8188317,37.1633265 15.0033015,37.4082245 C15.9871407,38.8776122 17.2169397,40.102102 18.6926985,41.0816939 C18.9392732,41.2653673 19.0616382,41.5714898 18.9392732,41.8163878 L18.077799,43.9592449 C18.0169239,44.2041429 18.0169239,44.3878163 18.077799,44.6327143 C18.1392889,44.8776122 18.3243737,45.0000612 18.5697186,45.1225102 L20.9063366,46.102102 C21.3367663,46.2857755 21.8901758,46.0408776 22.0746456,45.6123061 L22.9361198,43.469449 C23.0584848,43.224551 23.3044446,43.0408776 23.6118944,43.102102 C25.3336129,43.469449 27.1168214,43.469449 28.83854,43.102102 L28.9615199,43.102102 C29.2080946,43.102102 29.4534395,43.224551 29.5155443,43.469449 L30.3757887,45.6123061 C30.5602586,46.0408776 31.0527931,46.2857755 31.5447127,46.102102 L33.8807158,45.1225102 C34.3117603,44.9388367 34.5571052,44.4490408 34.3726354,43.9592449 L33.512391,41.8163878 C33.3894111,41.5714898 33.512391,41.2041429 33.7577359,41.0816939 C35.2341096,40.102102 36.4639086,38.8776122 37.4471328,37.4082245 C37.6316027,37.1633265 37.9390524,37.0408776 38.1850122,37.1633265 L40.3371604,38.0204694 C40.4607552,38.0816939 40.5837351,38.0816939 40.6446102,38.0816939 C41.0135499,38.0816939 41.3209996,37.8980204 41.4439795,37.5306735 L42.4284336,35.2041429 C42.4893086,34.9592449 42.4893086,34.7755714 42.4284336,34.5306735 C42.3663287,34.2857755 42.1818589,34.1633265 41.9358991,34.0408776 L39.7222609,33.1225102 C39.4763011,33.0000612 39.2918313,32.6939388 39.3539361,32.4490408 C39.7222609,30.7347551 39.7222609,28.9592449 39.3539361,27.2449592 C39.2918313,26.9388367 39.4763011,26.6939388 39.7222609,26.5714898 L41.8744091,25.7143469 C42.1209838,25.591898 42.2433488,25.4082245 42.3663287,25.1633265 M42.3663287,26.7551633 L40.7061001,27.4286327 C40.9520599,28.9592449 40.9520599,30.5510816 40.7061001,32.1429184 L42.3663287,32.8163878 C42.8582483,33.0612857 43.288678,33.4286327 43.5352527,33.9796531 C43.7191076,34.469449 43.7191076,35.0816939 43.5352527,35.5714898 L42.5507986,37.8980204 C42.2433488,38.6939388 41.4439795,39.1837347 40.5837351,39.1837347 C40.2762854,39.1837347 40.0297107,39.1225102 39.7837509,39.0000612 L38.1241372,38.3265918 C37.2017879,39.6123061 36.094354,40.7143469 34.803065,41.6327143 L35.4794545,43.2857755 C35.9098841,44.3265918 35.4179645,45.6123061 34.3117603,46.0408776 L31.9751423,47.0204694 C31.7285676,47.1429184 31.4211179,47.2041429 31.1751581,47.2041429 C30.3149137,47.2041429 29.5764194,46.7143469 29.2080946,45.9184286 L28.5310903,44.2653673 C26.9938415,44.5102653 25.3957178,44.5102653 23.7963642,44.2653673 L23.1199748,45.9184286 C22.812525,46.7143469 22.0137706,47.2041429 21.1522964,47.2041429 C20.8448467,47.2041429 20.5988869,47.1429184 20.3529271,47.0204694 L18.0169239,46.0408776 C17.5243894,45.7959796 17.0945747,45.4286327 16.848,44.8776122 C16.6635302,44.3878163 16.6635302,43.7755714 16.848,43.2857755 L17.5243894,41.6327143 C16.2331005,40.7143469 15.1262814,39.6123061 14.2039322,38.3265918 L12.5437036,39.0000612 C12.2977438,39.1225102 11.990294,39.1837347 11.7443343,39.1837347 C10.883475,39.1837347 10.1455956,38.6939388 9.77665589,37.8980204 L8.79343161,35.5714898 C8.36238707,34.5306735 8.85430666,33.2449592 9.96112574,32.8163878 L11.6213544,32.1429184 C11.3753946,30.6123061 11.3753946,29.0204694 11.6213544,27.4286327 L10.0232306,26.7551633 C9.5306961,26.5102653 9.10088136,26.1429184 8.85430666,25.591898 C8.66983682,25.102102 8.66983682,24.4898571 8.85430666,24.0000612 L9.83814584,21.6735306 C10.1455956,20.8776122 10.9455798,20.3878163 11.8058242,20.3878163 C12.1132739,20.3878163 12.3592337,20.4490408 12.6051935,20.5714898 L14.2654222,21.2449592 C15.1877714,19.9592449 16.2945905,18.8572041 17.5858794,17.9388367 L16.9094899,16.2857755 C16.4796752,15.2449592 16.9709799,13.9592449 18.077799,13.5306735 L20.414417,12.5510816 C20.6603768,12.4286327 20.9678266,12.3674082 21.2137864,12.3674082 C22.0746456,12.3674082 22.812525,12.8572041 23.1814647,13.6531224 L23.8584691,15.3061837 C25.3957178,15.0612857 26.9938415,15.0612857 28.5931951,15.3061837 L29.2689696,13.6531224 C29.5764194,12.8572041 30.3757887,12.3674082 31.2372629,12.3674082 C31.5447127,12.3674082 31.7900575,12.4286327 32.0360173,12.5510816 L34.3726354,13.5306735 C34.864555,13.7755714 35.2949846,14.1429184 35.5415593,14.6939388 C35.7254143,15.1837347 35.7254143,15.7959796 35.5415593,16.2857755 L34.864555,17.9388367 C36.1564588,18.8572041 37.262663,19.9592449 38.1850122,21.2449592 L39.8458557,20.5714898 C40.0912006,20.4490408 40.3986504,20.3878163 40.6446102,20.3878163 C41.5060844,20.3878163 42.2433488,20.8776122 42.6129034,21.6735306 L43.5961277,24.0000612 C43.8427024,24.4898571 43.8427024,25.102102 43.5961277,25.591898 C43.3507828,26.0816939 42.8582483,26.5714898 42.3663287,26.7551633 M51.7742909,29.2041429 C51.4053512,29.2041429 51.1593914,29.4490408 51.1593914,29.8163878 C51.1593914,43.5306735 39.9688356,54.6735306 26.1944722,54.6735306 L25.088268,54.6735306 L27.7932109,51.9796531 C28.0391707,51.7347551 28.0391707,51.3674082 27.7932109,51.1225102 C27.547866,50.8776122 27.1783114,50.8776122 26.9329665,51.1225102 L23.1814647,54.8572041 C23.0584848,54.9796531 22.9969949,55.102102 22.9969949,55.2857755 C22.9969949,55.469449 23.0584848,55.591898 23.1814647,55.7143469 L26.9329665,59.4490408 C27.0559464,59.5714898 27.2404162,59.6327143 27.3633961,59.6327143 C27.4857611,59.6327143 27.6708459,59.5714898 27.7932109,59.4490408 C28.0391707,59.2041429 28.0391707,58.8367959 27.7932109,58.591898 L25.088268,55.8980204 L26.1944722,55.8980204 C40.6446102,55.8980204 52.3891904,44.2041429 52.3891904,29.8163878 C52.3891904,29.4490408 52.0817406,29.2041429 51.7742909,29.2041429 M1.22955302,29.8163878 C1.22955302,30.1837347 0.98359322,30.4286327 0.614653528,30.4286327 C0.245713835,30.4286327 -0.000245959795,30.1837347 -0.000245959795,29.8163878 C-0.000245959795,15.4286327 11.7443343,3.7347551 26.1944722,3.7347551 L27.3012913,3.7347551 L24.5342436,1.04087755 C24.2882838,0.795979592 24.2882838,0.428632653 24.5342436,0.183734694 C24.7808183,-0.0611632653 25.1491431,-0.0611632653 25.3957178,0.183734694 L29.1459898,3.91842857 C29.2689696,4.04087755 29.3304596,4.16332653 29.3304596,4.347 C29.3304596,4.53067347 29.3304596,4.71434694 29.2080946,4.77557143 L25.4565928,8.51026531 C25.3336129,8.63271429 25.1491431,8.69393878 25.0261632,8.69393878 C24.9031833,8.69393878 24.7187134,8.63271429 24.5957335,8.51026531 C24.3497737,8.26536735 24.3497737,7.89802041 24.5957335,7.65312245 L27.3012913,4.9592449 L26.1944722,4.9592449 C12.4207237,4.9592449 1.22955302,16.102102 1.22955302,29.8163878"></path>
            </g>
        </g>
    </g>
</svg>