<?xml version="1.0" encoding="UTF-8"?>
<svg width="60px" height="60px" viewBox="0 0 60 60" version="1.1" xmlns="http://www.w3.org/2000/svg" xmlns:xlink="http://www.w3.org/1999/xlink">
    <!-- Generator: Sketch 43.1 (39012) - http://www.bohemiancoding.com/sketch -->
    <title>Fill 1</title>
    <desc>Created with Sketch.</desc>
    <defs></defs>
    <g id="Page-1" stroke="none" stroke-width="1" fill="none" fill-rule="evenodd">
        <g id="Desktop-HD-Copy-5" transform="translate(-309.000000, -4111.000000)" fill="#941d80">
            <g id="Fill-1" transform="translate(309.000000, 4111.000000)">
                <path d="M45.2717755,23.8785306 L40.1289184,23.8785306 C40.4962653,25.7152653 40.6799388,27.7356735 40.6799388,29.8173061 C40.6799388,31.8989388 40.4962653,33.9193469 40.0676939,35.7560816 L45.1493265,35.7560816 L45.2099388,35.7560816 C46.740551,32.0826122 46.8023878,27.8581224 45.2717755,23.8785306 L45.2717755,23.8785306 Z M44.7819796,36.9805714 L39.8227959,36.9805714 C38.9044286,40.5928163 37.2507551,43.5928163 35.2309592,45.4907755 C35.5370816,45.3683265 35.9044286,45.2452653 36.210551,45.1234286 C40.0676939,43.4703673 43.0670816,40.5315918 44.7819796,36.9805714 L44.7819796,36.9805714 Z M25.8023878,45.8575102 C23.5370816,44.0207755 21.7615714,40.8377143 20.7207551,36.9805714 L14.8432041,36.9805714 C17.1085102,41.5111837 21.088102,44.6948571 25.8023878,45.8575102 L25.8023878,45.8575102 Z M14.4146327,35.8173061 C14.4758571,35.8173061 14.5370816,35.7560816 14.5983061,35.7560816 L20.5370816,35.7560816 C20.1697347,33.9193469 19.9248367,31.8989388 19.9248367,29.8173061 C19.9248367,27.7356735 20.1085102,25.7152653 20.4758571,23.8785306 L14.5983061,23.8785306 C14.5370816,23.8785306 14.4758571,23.8785306 14.4146327,23.8173061 C12.9452449,27.552 12.8840204,31.8377143 14.4146327,35.8173061 L14.4146327,35.8173061 Z M14.9044286,22.6540408 L20.7207551,22.6540408 C21.7003469,18.7356735 23.4146327,15.6132245 25.6187143,13.8377143 C24.8840204,14.0213878 24.210551,14.2662857 23.5370816,14.5724082 C19.6187143,16.1642449 16.6187143,19.1030204 14.9044286,22.6540408 L14.9044286,22.6540408 Z M38.5983061,22.6540408 C37.1901429,17.3275102 34.3738163,13.6540408 30.8840204,13.2866939 L30.8840204,22.6540408 L38.5983061,22.6540408 Z M38.5370816,36.9805714 L30.8840204,36.9805714 L30.8840204,46.3479184 C34.1895306,45.9193469 37.1289184,42.1840408 38.5370816,36.9805714 L38.5370816,36.9805714 Z M22.0676939,36.9805714 C23.4758571,42.1840408 26.3534082,45.9193469 29.7207551,46.3479184 L29.7207551,36.9805714 L22.0676939,36.9805714 Z M22.0064694,22.6540408 L29.7207551,22.6540408 L29.7207551,13.2866939 C26.2309592,13.7152653 23.3534082,17.3275102 22.0064694,22.6540408 L22.0064694,22.6540408 Z M21.7615714,35.7560816 L29.6595306,35.7560816 L29.6595306,23.8785306 L21.7003469,23.8785306 C21.333,25.7152653 21.088102,27.7356735 21.088102,29.8173061 C21.088102,31.8989388 21.333,33.9193469 21.7615714,35.7560816 L21.7615714,35.7560816 Z M38.9044286,23.8785306 L30.9452449,23.8785306 L30.9452449,35.7560816 L38.8432041,35.7560816 C39.2717755,33.9193469 39.455449,31.8989388 39.455449,29.8173061 C39.455449,27.674449 39.2717755,25.7152653 38.9044286,23.8785306 L38.9044286,23.8785306 Z M35.4758571,14.2050612 C37.4350408,16.0417959 39.0268776,18.9805714 39.8840204,22.5928163 L44.7819796,22.5928163 C42.8227959,18.674449 39.5166735,15.674449 35.4758571,14.2050612 L35.4758571,14.2050612 Z M46.2513673,23.0213878 L46.2513673,23.0213878 C49.9860612,32.0826122 45.7003469,42.4901633 36.6385102,46.2866939 C34.8017755,47.082 32.8432041,47.5111837 30.8221837,47.6336327 L30.7003469,47.6336327 L30.577898,47.6336327 L30.210551,47.6336327 L30.0268776,47.6336327 L29.7207551,47.6336327 C22.4962653,47.6336327 16.0676939,43.3479184 13.2513673,36.674449 C9.51667347,27.6132245 13.8023878,17.2050612 22.8636122,13.4091429 C25.0676939,12.4907755 27.333,12.0622041 29.6595306,12.0622041 L30.0268776,12.0622041 L30.1493265,12.0622041 C30.3942245,12.0622041 30.577898,12.0622041 30.8221837,12.1234286 C37.7411633,12.4907755 43.6793265,16.7152653 46.2513673,23.0213878 L46.2513673,23.0213878 Z M57.1487143,19.3479184 C56.8425918,19.4703673 56.6595306,19.8377143 56.7819796,20.1438367 C60.5160612,30.552 58.0670816,41.8779184 50.2921837,49.7764898 C39.2717755,61.0417959 21.1493265,61.2866939 9.88402041,50.2662857 L8.84320408,49.2248571 L13.4962653,49.1642449 C13.8636122,49.1642449 14.1085102,48.8581224 14.1085102,48.552 C14.1085102,48.1846531 13.8023878,47.9397551 13.4962653,47.9397551 L7.37381633,48.0003673 C7.00646939,48.0003673 6.76157143,48.3064898 6.76157143,48.6126122 L6.82279592,54.7350612 C6.82279592,55.0411837 7.12891837,55.3473061 7.43504082,55.3473061 C7.80238776,55.3473061 8.04728571,55.0411837 8.04728571,54.7350612 L7.98606122,50.0826122 L9.02687755,51.1234286 C14.8432041,56.7560816 22.3125918,59.5724082 29.8432041,59.5724082 C37.6187143,59.5724082 45.333,56.5717959 51.1493265,50.6336327 C59.1697347,42.429551 61.8023878,30.552 57.8840204,19.7152653 C57.7609592,19.4091429 57.4548367,19.2254694 57.1487143,19.3479184 L57.1487143,19.3479184 Z M2.53708163,40.2866939 C2.47585714,40.2866939 2.41463265,40.3473061 2.35340816,40.3473061 C2.1085102,40.3473061 1.86361224,40.1642449 1.80238776,39.9193469 C-2.11597959,29.0826122 0.45544898,17.2050612 8.53708163,9.00097959 C14.1085102,3.30710204 21.5166735,0.123428571 29.4758571,0.000979591837 C37.4350408,-0.060244898 44.9656531,2.9397551 50.6595306,8.51118367 L51.7003469,9.552 L51.6385102,4.89893878 C51.6385102,4.53159184 51.8840204,4.28669388 52.2507551,4.28669388 C52.5568776,4.22546939 52.863,4.53159184 52.863,4.89893878 L52.9248367,11.0213878 C52.9248367,11.3887347 52.6799388,11.6336327 52.3125918,11.6336327 L46.1901429,11.6948571 C45.8840204,11.6948571 45.577898,11.4499592 45.577898,11.0826122 C45.577898,10.7152653 45.8221837,10.4703673 46.1901429,10.4703673 L50.8432041,10.4091429 L49.8017755,9.36832653 C38.5370816,-1.65208163 20.4146327,-1.46840816 9.39422449,9.85812245 C1.67993878,17.7560816 -0.769040816,29.0826122 2.96565306,39.4907755 C3.02687755,39.796898 2.90442857,40.1642449 2.53708163,40.2866939 L2.53708163,40.2866939 Z"></path>
            </g>
        </g>
    </g>
</svg>