<?xml version="1.0" encoding="UTF-8"?>
<svg width="60px" height="60px" viewBox="0 0 60 60" version="1.1" xmlns="http://www.w3.org/2000/svg" xmlns:xlink="http://www.w3.org/1999/xlink">
    <!-- Generator: Sketch 43.1 (39012) - http://www.bohemiancoding.com/sketch -->
    <title>Fill 1</title>
    <desc>Created with Sketch.</desc>
    <defs></defs>
    <g id="Page-1" stroke="none" stroke-width="1" fill="none" fill-rule="evenodd">
        <g id="Desktop-HD-Copy-5" transform="translate(-309.000000, -4238.000000)" fill="#941d80">
            <g id="Fill-1" transform="translate(309.000000, 4238.000000)">
                <path d="M24.6734694,26.694 C24.6734694,24.6123673 26.3265306,22.9593061 28.4081633,22.9593061 L29.2653061,22.9593061 L29.2653061,20.571551 C29.2653061,20.2042041 29.5102041,19.9593061 29.877551,19.9593061 C30.244898,19.9593061 30.4897959,20.2042041 30.4897959,20.571551 L30.4897959,22.9593061 L33.4897959,22.9593061 C33.8571429,22.9593061 34.1020408,23.2042041 34.1020408,23.571551 C34.1020408,23.938898 33.8571429,24.1837959 33.4897959,24.1837959 L28.4693878,24.1837959 C27.0612245,24.1837959 25.9591837,25.2858367 25.9591837,26.694 C25.9591837,28.1021633 27.0612245,29.2042041 28.4693878,29.2042041 L31.3469388,29.2042041 C33.4285714,29.2042041 35.0816327,30.8572653 35.0816327,32.938898 C35.0816327,35.0205306 33.4285714,36.6735918 31.3469388,36.6735918 L30.4897959,36.6735918 L30.4897959,39.0613469 C30.4897959,39.4286939 30.244898,39.6735918 29.877551,39.6735918 C29.5102041,39.6735918 29.2653061,39.4286939 29.2653061,39.0613469 L29.2653061,36.6735918 L26.1428571,36.6735918 C25.7755102,36.6735918 25.5306122,36.4286939 25.5306122,36.0613469 C25.5306122,35.694 25.7755102,35.449102 26.1428571,35.449102 L31.2857143,35.449102 C32.6938776,35.449102 33.7959184,34.3470612 33.7959184,32.938898 C33.7959184,31.5307347 32.6938776,30.4899184 31.2857143,30.4899184 L28.4081633,30.4899184 C26.3877551,30.4899184 24.6734694,28.7756327 24.6734694,26.694 M14.9387755,50.1429796 C14.2040816,50.8776735 13.2857143,51.2450204 12.244898,51.2450204 C11.2040816,51.2450204 10.2857143,50.8776735 9.55102041,50.1429796 C8.08163265,48.6729796 8.08163265,46.2858367 9.55102041,44.816449 C10.2857143,44.0811429 11.2040816,43.7144082 12.244898,43.7144082 C13.2857143,43.7144082 14.2040816,44.0811429 14.9387755,44.816449 C16.4693878,46.2858367 16.4693878,48.6729796 14.9387755,50.1429796 M12.3061224,42.4286939 C10.9591837,42.4286939 9.73469388,42.9797143 8.75510204,43.8980816 C6.79591837,45.8572653 6.79591837,49.0409388 8.75510204,51.0001224 C9.67346939,51.9184898 10.9591837,52.4695102 12.3061224,52.4695102 C13.6530612,52.4695102 14.877551,51.9184898 15.8571429,51.0001224 C17.6326531,49.2246122 17.8163265,46.3470612 16.2857143,44.3872653 L20.5714286,40.101551 C20.8163265,39.8572653 20.8163265,39.4893061 20.5714286,39.2450204 C20.3265306,39.0001224 19.9591837,39.0001224 19.7142857,39.2450204 L15.4285714,43.5307347 C14.5102041,42.8566531 13.4081633,42.4286939 12.3061224,42.4286939 M44.8163265,9.61236735 C45.5510204,8.87767347 46.4693878,8.51032653 47.5102041,8.51032653 C48.5510204,8.51032653 49.4693878,8.87767347 50.2040816,9.61236735 C51.6734694,11.0817551 51.6734694,13.4695102 50.2040816,14.938898 C49.4693878,15.6735918 48.5510204,16.0409388 47.5102041,16.0409388 C46.5306122,16.0409388 45.5510204,15.6735918 44.8163265,14.938898 C43.2857143,13.4695102 43.2857143,11.0817551 44.8163265,9.61236735 M47.4489796,17.3266531 C48.7959184,17.3266531 50.0204082,16.7756327 51,15.8572653 C52.9591837,13.8980816 52.9591837,10.7144082 51,8.75522449 C50.0816327,7.83685714 48.7959184,7.28583673 47.4489796,7.28583673 C46.1020408,7.28583673 44.877551,7.83685714 43.8979592,8.75522449 C42.122449,10.5307347 41.9387755,13.4082857 43.4693878,15.3674694 L39.1836735,19.6531837 C38.9387755,19.8980816 38.9387755,20.2654286 39.1836735,20.5103265 C39.3061224,20.6327755 39.4897959,20.694 39.6122449,20.694 C39.7346939,20.694 39.9183673,20.6327755 40.0408163,20.5103265 L44.3265306,16.2246122 C45.244898,16.8980816 46.3469388,17.3266531 47.4489796,17.3266531 M9.6122449,14.938898 C8.14285714,13.4695102 8.14285714,11.0817551 9.6122449,9.61236735 C10.3469388,8.87767347 11.2653061,8.51032653 12.3061224,8.51032653 C13.3469388,8.51032653 14.2653061,8.87767347 15,9.61236735 C16.4693878,11.0817551 16.4693878,13.4695102 15,14.938898 C14.2653061,15.6735918 13.3469388,16.0409388 12.3061224,16.0409388 C11.2653061,16.1021633 10.3469388,15.6735918 9.6122449,14.938898 M15.8571429,8.75522449 C14.9387755,7.83685714 13.6530612,7.28583673 12.3061224,7.28583673 C10.9591837,7.28583673 9.73469388,7.83685714 8.75510204,8.75522449 C6.79591837,10.7144082 6.79591837,13.8980816 8.75510204,15.8572653 C9.67346939,16.7756327 10.9591837,17.3266531 12.3061224,17.3266531 C13.4081633,17.3266531 14.5102041,16.9593061 15.3673469,16.2858367 L19.6530612,20.571551 C19.7755102,20.694 19.9591837,20.7552245 20.0816327,20.7552245 C20.2040816,20.7552245 20.3877551,20.694 20.5102041,20.571551 C20.755102,20.3266531 20.755102,19.9593061 20.5102041,19.7144082 L16.2244898,15.4286939 C17.755102,13.4082857 17.6326531,10.5307347 15.8571429,8.75522449 M50.1428571,50.1429796 C49.4081633,50.8776735 48.4897959,51.2450204 47.4489796,51.2450204 C46.4081633,51.2450204 45.4897959,50.8776735 44.755102,50.1429796 C44.0204082,49.4082857 43.6530612,48.4899184 43.6530612,47.4484898 C43.6530612,46.4082857 44.0204082,45.4899184 44.755102,44.7552245 C45.4897959,44.0205306 46.4081633,43.6531837 47.4489796,43.6531837 C48.4897959,43.6531837 49.4081633,44.0205306 50.1428571,44.7552245 C51.6122449,46.2858367 51.6122449,48.6729796 50.1428571,50.1429796 M47.4489796,42.4286939 C46.3469388,42.4286939 45.244898,42.7960408 44.3877551,43.468898 L40.1020408,39.1831837 C39.8571429,38.938898 39.4897959,38.938898 39.244898,39.1831837 C39,39.4286939 39,39.7954286 39.244898,40.0409388 L43.5306122,44.3266531 C42.8571429,45.1837959 42.4897959,46.2858367 42.4897959,47.3878776 C42.4897959,48.7348163 43.0408163,49.9593061 43.9591837,50.938898 C44.877551,51.8572653 46.1632653,52.4082857 47.5102041,52.4082857 C48.8571429,52.4082857 50.0816327,51.8572653 51.0612245,50.938898 C53.0204082,48.979102 53.0204082,45.7960408 51.0612245,43.8368571 C50.0816327,42.9797143 48.7959184,42.4286939 47.4489796,42.4286939 M5.02040816,26.0817551 C7.10204082,26.0817551 8.81632653,27.7960408 8.81632653,29.8776735 C8.81632653,31.9593061 7.10204082,33.6735918 5.02040816,33.6735918 C2.93877551,33.6735918 1.2244898,31.9593061 1.2244898,29.8776735 C1.2244898,27.7960408 2.93877551,26.0817551 5.02040816,26.0817551 M5.02040816,34.8980816 C7.59183673,34.8980816 9.67346939,33.0001224 9.97959184,30.4899184 L15.9795918,30.4899184 C16.3469388,30.4899184 16.5918367,30.2450204 16.5918367,29.8776735 C16.5918367,29.5103265 16.3469388,29.2654286 15.9795918,29.2654286 L9.97959184,29.2654286 C9.67346939,26.816449 7.59183673,24.8572653 5.02040816,24.8572653 C2.26530612,24.8572653 0,27.1225714 0,29.8776735 C0,32.6327755 2.26530612,34.8980816 5.02040816,34.8980816 M54.7346939,33.6735918 C52.6530612,33.6735918 50.9387755,31.9593061 50.9387755,29.8776735 C50.9387755,27.7960408 52.6530612,26.0817551 54.7346939,26.0817551 C56.8163265,26.0817551 58.5306122,27.7960408 58.5306122,29.8776735 C58.5306122,31.9593061 56.8163265,33.6735918 54.7346939,33.6735918 M54.7346939,24.8572653 C52.1632653,24.8572653 50.0816327,26.7552245 49.7755102,29.2654286 L43.7755102,29.2654286 C43.4081633,29.2654286 43.1632653,29.5103265 43.1632653,29.8776735 C43.1632653,30.2450204 43.4081633,30.4899184 43.7755102,30.4899184 L49.7755102,30.4899184 C50.0816327,32.938898 52.1632653,34.8980816 54.7346939,34.8980816 C57.4897959,34.8980816 59.755102,32.6327755 59.755102,29.8776735 C59.755102,27.1225714 57.4897959,24.8572653 54.7346939,24.8572653 M26.0816327,5.02053061 C26.0816327,2.93889796 27.7959184,1.22461224 29.877551,1.22461224 C31.9591837,1.22461224 33.6734694,2.93889796 33.6734694,5.02053061 C33.6734694,7.10216327 31.9591837,8.81644898 29.877551,8.81644898 C27.7959184,8.81644898 26.0816327,7.10216327 26.0816327,5.02053061 M29.877551,16.5919592 C30.244898,16.5919592 30.4897959,16.3470612 30.4897959,15.9797143 L30.4897959,9.97971429 C32.9387755,9.67359184 34.8979592,7.59195918 34.8979592,5.02053061 C34.8979592,2.26542857 32.6326531,0.00012244898 29.877551,0.00012244898 C27.122449,0.00012244898 24.8571429,2.26542857 24.8571429,5.02053061 C24.8571429,7.59195918 26.755102,9.67359184 29.2653061,9.97971429 L29.2653061,15.9797143 C29.2653061,16.3470612 29.5102041,16.5919592 29.877551,16.5919592 M33.6734694,54.7348163 C33.6734694,56.816449 31.9591837,58.5307347 29.877551,58.5307347 C27.7959184,58.5307347 26.0816327,56.816449 26.0816327,54.7348163 C26.0816327,52.6525714 27.7959184,50.938898 29.877551,50.938898 C31.9591837,50.938898 33.6734694,52.6525714 33.6734694,54.7348163 M29.877551,43.1627755 C29.5102041,43.1627755 29.2653061,43.4082857 29.2653061,43.7750204 L29.2653061,49.7756327 C26.8163265,50.0817551 24.8571429,52.1633878 24.8571429,54.7348163 C24.8571429,57.4899184 27.122449,59.7552245 29.877551,59.7552245 C32.6326531,59.7552245 34.8979592,57.4899184 34.8979592,54.7348163 C34.8979592,52.1633878 33,50.0817551 30.4897959,49.7756327 L30.4897959,43.7750204 C30.4897959,43.4082857 30.244898,43.1627755 29.877551,43.1627755"></path>
            </g>
        </g>
    </g>
</svg>