<?xml version="1.0" encoding="UTF-8"?>
<svg width="45px" height="60px" viewBox="0 0 45 60" version="1.1" xmlns="http://www.w3.org/2000/svg" xmlns:xlink="http://www.w3.org/1999/xlink">
    <!-- Generator: Sketch 43.1 (39012) - http://www.bohemiancoding.com/sketch -->
    <title>Fill 1</title>
    <desc>Created with Sketch.</desc>
    <defs></defs>
    <g id="Page-1" stroke="none" stroke-width="1" fill="none" fill-rule="evenodd">
        <g id="Desktop-HD-Copy-5" transform="translate(-309.000000, -4364.000000)" fill="#941d80">
            <g id="Fill-1" transform="translate(309.000000, 4364.000000)">
                <path d="M1.2295082,56.3114754 C1.2295082,57.295082 2.02868852,58.0936475 3.01229508,58.0936475 L7.93032787,58.0936475 C8.91393443,58.0936475 9.71311475,57.295082 9.71311475,56.3114754 L9.71311475,37.2540984 C9.71311475,36.2704918 8.91393443,35.4713115 7.93032787,35.4713115 L3.01229508,35.4713115 C2.02868852,35.4713115 1.2295082,36.2704918 1.2295082,37.2540984 L1.2295082,56.3114754 Z M10.942623,37.0081967 L10.942623,37.2540984 L10.942623,54.1598361 C10.942623,56.6803279 13.0327869,58.7704918 15.5532787,58.7704918 L35.102459,58.7704918 C37.5,58.7704918 40.4508197,57.9713115 40.942623,54.0977459 L43.5245902,37.3770492 C43.5245902,34.8565574 41.4344262,32.8278689 38.9139344,32.8278689 L27.9098361,32.8278689 C27.5409836,32.8278689 27.295082,32.5819672 27.295082,32.2131148 L27.295082,23.9754098 C27.295082,21.5778689 26.6803279,19.8565574 25.3893443,18.9344262 C23.7909836,17.7663934 21.6393443,18.0737705 20.7172131,18.2581967 L20.7172131,25.7581967 C20.7172131,32.7663934 12.5409836,36.3319672 10.942623,37.0081967 L10.942623,37.0081967 Z M0,56.3114754 L0,37.2540984 C0,35.5942623 1.35245902,34.2418033 3.01229508,34.2418033 L7.93032787,34.2418033 C9.09836066,34.2418033 10.0204918,34.8565574 10.5737705,35.8401639 C12.2336066,35.1639344 19.4877049,31.8442623 19.4877049,25.8196721 L19.4877049,17.8278689 C19.4877049,17.5819672 19.6721311,17.3360656 19.9180328,17.2131148 C20.0409836,17.1516393 23.6065574,16.1065574 26.1270492,17.9508197 C27.7254098,19.1188525 28.5245902,21.147541 28.5245902,23.9754098 L28.5245902,31.5983607 L38.9139344,31.5983607 C42.1106557,31.5983607 44.7540984,34.2418033 44.7540984,37.4385246 L44.7540984,37.5614754 L42.1106557,54.2827869 C41.6803279,57.9098361 39.0983607,60 35.0409836,60 L15.5532787,60 C13.5245902,60 11.7418033,58.954918 10.6967213,57.4180328 C10.2663934,58.5245902 9.15983607,59.2622951 7.93032787,59.2622951 L3.01229508,59.2622951 C1.35245902,59.3231557 0,57.9713115 0,56.3114754 L0,56.3114754 Z M32.1516393,14.5696721 C32.3360656,14.5696721 32.4590164,14.5081967 32.5819672,14.3852459 L39.5286885,7.43852459 C39.7745902,7.19262295 39.7745902,6.82377049 39.5286885,6.57786885 C39.2827869,6.33196721 38.9139344,6.33196721 38.6680328,6.57786885 L31.7213115,13.5245902 C31.4754098,13.7704918 31.4754098,14.1393443 31.7213115,14.3852459 C31.8442623,14.5081967 32.0286885,14.5696721 32.1516393,14.5696721 L32.1516393,14.5696721 Z M3.44262295,23.3606557 L13.2786885,23.3606557 C13.647541,23.3606557 13.8934426,23.1147541 13.8934426,22.7459016 C13.8934426,22.3770492 13.647541,22.1311475 13.2786885,22.1311475 L3.44262295,22.1311475 C3.07377049,22.1311475 2.82786885,22.3770492 2.82786885,22.7459016 C2.82786885,23.1147541 3.07377049,23.3606557 3.44262295,23.3606557 L3.44262295,23.3606557 Z M33.8729508,22.7459016 C33.8729508,23.1147541 34.1188525,23.3606557 34.4877049,23.3606557 L44.3237705,23.3606557 C44.692623,23.3606557 44.9385246,23.1147541 44.9385246,22.7459016 C44.9385246,22.3770492 44.692623,22.1311475 44.3237705,22.1311475 L34.4877049,22.1311475 C34.1803279,22.1311475 33.8729508,22.3770492 33.8729508,22.7459016 L33.8729508,22.7459016 Z M14.1393443,13.647541 C14.2622951,13.7704918 14.4467213,13.8319672 14.5696721,13.8319672 C14.692623,13.8319672 14.8770492,13.7704918 15,13.647541 C15.2459016,13.4016393 15.2459016,13.0327869 15,12.7868852 L8.05327869,5.84016393 C7.80737705,5.5942623 7.43852459,5.5942623 7.19262295,5.84016393 C6.94672131,6.08606557 6.94672131,6.45491803 7.19262295,6.70081967 L14.1393443,13.647541 Z M23.2991803,10.4508197 L23.2991803,0.614754098 C23.2991803,0.245901639 23.545082,0 23.9139344,0 C24.2827869,0 24.5286885,0.245901639 24.5286885,0.614754098 L24.5286885,10.4508197 C24.5286885,10.8196721 24.2827869,11.0655738 23.9139344,11.0655738 C23.545082,11.0655738 23.2991803,10.8196721 23.2991803,10.4508197 L23.2991803,10.4508197 Z"></path>
            </g>
        </g>
    </g>
</svg>