<?xml version="1.0" encoding="UTF-8"?>
<svg width="60px" height="53px" viewBox="0 0 60 53" version="1.1" xmlns="http://www.w3.org/2000/svg" xmlns:xlink="http://www.w3.org/1999/xlink">
    <!-- Generator: Sketch 43.1 (39012) - http://www.bohemiancoding.com/sketch -->
    <title>Fill 1</title>
    <desc>Created with Sketch.</desc>
    <defs></defs>
    <g id="Page-1" stroke="none" stroke-width="1" fill="none" fill-rule="evenodd">
        <g id="Desktop-HD-Copy-5" transform="translate(-794.000000, -3881.000000)" fill="#941d80">
            <g id="Fill-1" transform="translate(794.000000, 3881.000000)">
                <path d="M22.4693878,38.5714286 C22.5918367,38.5714286 22.6530612,38.5714286 22.7755102,38.5095918 L30,34.3469388 L37.2244898,38.5095918 C37.3469388,38.5714286 37.4081633,38.5714286 37.5306122,38.5714286 C37.7142857,38.5714286 37.9591837,38.4489796 38.0816327,38.2653061 C38.2653061,37.9591837 38.1428571,37.5912245 37.8367347,37.4081633 L30.6122449,33.244898 L30.6122449,24.9183673 C30.6122449,24.5510204 30.3673469,24.3061224 30,24.3061224 C29.6326531,24.3061224 29.3877551,24.5510204 29.3877551,24.9183673 L29.3877551,33.244898 L22.1632653,37.4081633 C21.8571429,37.5912245 21.7959184,37.9591837 21.9183673,38.2653061 C22.0408163,38.4489796 22.2244898,38.5714286 22.4693878,38.5714286 M0.612244898,52.6530612 C0.979591837,52.6530612 1.2244898,52.4081633 1.2244898,52.0408163 L1.2244898,48.9795918 C1.2244898,48.4891837 1.40816327,48.0612245 1.7755102,47.8163265 C4.46938776,45.6122449 7.40816327,44.0816327 7.95918367,43.8367347 C8.26530612,43.7136735 8.3877551,43.407551 8.3877551,43.1014286 L8.3877551,38.8157143 C8.3877551,38.6326531 8.26530612,38.4489796 8.14285714,38.3265306 C7.7755102,38.0810204 7.53061224,37.6530612 7.53061224,37.1626531 L7.53061224,32.6932653 C7.53061224,30.7959184 9.06122449,29.3259184 10.8979592,29.3259184 L11.877551,29.3259184 C13.7755102,29.3259184 15.244898,30.8565306 15.244898,32.6932653 L15.244898,37.1626531 C15.244898,37.6530612 15,38.0810204 14.6326531,38.3265306 C14.4489796,38.4489796 14.3877551,38.6326531 14.3877551,38.8157143 L14.3877551,43.1014286 C14.3877551,43.407551 14.5714286,43.7136735 14.8163265,43.8367347 C15.3673469,44.0816327 18.3061224,45.6122449 21,47.8163265 C21.3673469,48.122449 21.5510204,48.5510204 21.5510204,48.9795918 L21.5510204,52.0408163 C21.5510204,52.4081633 21.7959184,52.6530612 22.1632653,52.6530612 C22.5306122,52.6530612 22.7755102,52.4081633 22.7755102,52.0408163 L22.7755102,48.9795918 C22.7755102,48.122449 22.4081633,47.3871429 21.7959184,46.8367347 C19.2244898,44.755102 16.5306122,43.285102 15.5510204,42.7953061 L15.5510204,39.0612245 C16.1020408,38.5714286 16.4693878,37.8367347 16.4693878,37.1020408 L16.4693878,32.6326531 C16.4693878,30.0612245 14.3877551,28.0408163 11.877551,28.0408163 L10.8979592,28.0408163 C8.32653061,28.0408163 6.30612245,30.122449 6.30612245,32.6326531 L6.30612245,37.1020408 C6.30612245,37.8367347 6.6122449,38.5714286 7.2244898,39.0612245 L7.2244898,42.8571429 C6.30612245,43.3469388 3.55102041,44.8157143 0.979591837,46.8979592 C0.367346939,47.4489796 0,48.1830612 0,49.0408163 L0,52.1020408 C0,52.4081633 0.306122449,52.6530612 0.612244898,52.6530612 M59.1428571,52.6530612 C59.5102041,52.6530612 59.755102,52.4081633 59.755102,52.0408163 L59.755102,48.9795918 C59.755102,48.122449 59.3877551,47.3871429 58.7755102,46.8367347 C56.2040816,44.755102 53.4489796,43.285102 52.5306122,42.8571429 L52.5306122,39.1218367 C53.0816327,38.6326531 53.4489796,37.8973469 53.4489796,37.1626531 L53.4489796,32.6932653 C53.4489796,30.122449 51.3673469,28.1014286 48.8571429,28.1014286 L47.877551,28.1014286 C45.3061224,28.1014286 43.2857143,30.1836735 43.2857143,32.6932653 L43.2857143,37.1626531 C43.2857143,37.8973469 43.5918367,38.6326531 44.2040816,39.1218367 L44.2040816,42.8571429 C43.2857143,43.3469388 40.5306122,44.8157143 37.9591837,46.8979592 C37.3469388,47.4489796 36.9795918,48.1830612 36.9795918,49.0408163 L36.9795918,52.1020408 C36.9795918,52.4687755 37.2244898,52.7142857 37.5918367,52.7142857 C37.9591837,52.7142857 38.2040816,52.4687755 38.2040816,52.1020408 L38.2040816,49.0408163 C38.2040816,48.5510204 38.3877551,48.122449 38.755102,47.8769388 C41.4489796,45.6734694 44.3877551,44.1428571 44.9387755,43.8973469 C45.244898,43.7755102 45.3673469,43.4693878 45.3673469,43.1632653 L45.3673469,38.877551 C45.3673469,38.6932653 45.244898,38.5095918 45.122449,38.3871429 C44.755102,38.1428571 44.5102041,37.7142857 44.5102041,37.2244898 L44.5102041,32.755102 C44.5102041,30.8565306 46.0408163,29.3877551 47.877551,29.3877551 L48.8571429,29.3877551 C50.755102,29.3877551 52.2244898,30.9183673 52.2244898,32.755102 L52.2244898,37.2244898 C52.2244898,37.7142857 51.9795918,38.1428571 51.6122449,38.3871429 C51.3673469,38.3871429 51.3061224,38.5714286 51.3061224,38.8157143 L51.3061224,43.1014286 C51.3061224,43.407551 51.4897959,43.7136735 51.7346939,43.8367347 C52.2857143,44.0816327 55.2244898,45.6122449 57.9183673,47.8163265 C58.2857143,48.122449 58.4693878,48.5510204 58.4693878,48.9795918 L58.4693878,52.0408163 C58.5306122,52.4081633 58.7755102,52.6530612 59.1428571,52.6530612 M18.4285714,24 L18.4285714,20.9387755 C18.4285714,20.0816327 18.7959184,19.3469388 19.4081633,18.7959184 C21.9795918,16.7142857 24.6734694,15.2442857 25.6530612,14.755102 L25.6530612,11.0204082 C25.1020408,10.5306122 24.7346939,9.79591837 24.7346939,9.06122449 L24.7346939,4.59183673 C24.7346939,2.02040816 26.8163265,0 29.3265306,0 L30.3061224,0 C32.877551,0 34.8979592,2.08102041 34.8979592,4.59183673 L34.8979592,9.06122449 C34.8979592,9.79591837 34.5918367,10.5306122 33.9795918,11.0204082 L33.9795918,14.755102 C34.8979592,15.2442857 37.6530612,16.6530612 40.2244898,18.7959184 C40.8367347,19.3469388 41.2040816,20.0816327 41.2040816,20.9387755 L41.2040816,24 C41.2040816,24.3673469 40.9591837,24.6122449 40.5918367,24.6122449 C40.2244898,24.6122449 39.9795918,24.3673469 39.9795918,24 L39.9795918,20.9387755 C39.9795918,20.4483673 39.7959184,20.0204082 39.4285714,19.7755102 C36.7346939,17.5714286 33.7959184,16.0408163 33.244898,15.7959184 C32.9387755,15.6734694 32.8163265,15.3673469 32.8163265,15.0612245 L32.8163265,10.7755102 C32.8163265,10.5918367 32.9387755,10.4081633 33.0612245,10.2857143 C33.4285714,10.0402041 33.6734694,9.6122449 33.6734694,9.12183673 L33.6734694,4.65306122 C33.6734694,2.75510204 32.1428571,1.28571429 30.3061224,1.28571429 L29.3265306,1.28571429 C27.4285714,1.28571429 25.9591837,2.81632653 25.9591837,4.65306122 L25.9591837,9.12183673 C25.9591837,9.6122449 26.2040816,10.0402041 26.5714286,10.2857143 C26.755102,10.4081633 26.8163265,10.5918367 26.8163265,10.7755102 L26.8163265,15.0612245 C26.8163265,15.3673469 26.6326531,15.6734694 26.3877551,15.7959184 C25.8367347,16.0408163 22.8979592,17.5714286 20.2040816,19.7755102 C19.8367347,20.0816327 19.6530612,20.5102041 19.6530612,20.9387755 L19.6530612,24 C19.6530612,24.3673469 19.4081633,24.6122449 19.0408163,24.6122449 C18.6734694,24.6122449 18.4285714,24.3061224 18.4285714,24"></path>
            </g>
        </g>
    </g>
</svg>