<?xml version="1.0" encoding="UTF-8"?>
<svg width="60px" height="55px" viewBox="0 0 60 55" version="1.1" xmlns="http://www.w3.org/2000/svg" xmlns:xlink="http://www.w3.org/1999/xlink">
    <!-- Generator: Sketch 43.1 (39012) - http://www.bohemiancoding.com/sketch -->
    <title>Page 1</title>
    <desc>Created with Sketch.</desc>
    <defs></defs>
    <g id="Page-1" stroke="none" stroke-width="1" fill="none" fill-rule="evenodd">
        <g id="Desktop-HD-Copy-5" transform="translate(-794.000000, -4002.000000)" fill="#941d80">
            <g id="Page-1" transform="translate(794.000000, 4002.000000)">
                <path d="M22.1274793,39.3595041 L42.9545455,39.3595041 L42.9545455,26.3429752 L22.1274793,26.3429752 L22.1274793,39.3595041 Z M26.2190083,25.1033058 L38.9256198,25.1033058 L38.9256198,20.268595 C38.9256198,16.7355372 36.0743802,13.8842975 32.5413223,13.8842975 C29.0082645,13.8842975 26.1570248,16.7355372 26.1570248,20.268595 L26.1570248,25.1033058 L26.2190083,25.1033058 Z M40.1652893,20.2066116 L40.1652893,25.0413223 L43.5743802,25.0413223 C43.946281,25.0413223 44.1942149,25.2892562 44.1942149,25.661157 L44.1942149,39.9173554 C44.1942149,40.2892562 43.946281,40.5371901 43.5743802,40.5371901 L21.5082645,40.5371901 C21.1363636,40.5371901 20.8884298,40.2892562 20.8884298,39.9173554 L20.8884298,25.661157 C20.8884298,25.2892562 21.1363636,25.0413223 21.5082645,25.0413223 L24.9173554,25.0413223 L24.9173554,20.2066116 C24.9173554,15.9917355 28.3264463,12.5826446 32.5413223,12.5826446 C36.7561983,12.6446281 40.1652893,16.053719 40.1652893,20.2066116 L40.1652893,20.2066116 Z M60,27.4586777 C60,42.5826446 47.6652893,54.9173554 32.5413223,54.9173554 C17.4173554,54.9173554 5.1446281,42.5826446 5.1446281,27.4586777 L5.1446281,24.9793388 L1.05371901,29.0702479 C0.929752066,29.1942149 0.743801653,29.2561983 0.619834711,29.2561983 C0.495867769,29.2561983 0.309917355,29.1942149 0.185950413,29.0702479 C-0.0619834711,28.822314 -0.0619834711,28.4504132 0.185950413,28.2024793 L5.33057851,23.0578512 C5.5785124,22.8099174 5.95041322,22.8099174 6.19834711,23.0578512 L11.3429752,28.2024793 C11.5909091,28.4504132 11.5909091,28.822314 11.3429752,29.0702479 C11.2190083,29.1942149 11.0330579,29.2561983 10.9090909,29.2561983 C10.785124,29.2561983 10.5991736,29.1942149 10.4752066,29.0702479 L6.38429752,24.9793388 L6.38429752,27.4586777 C6.38429752,41.9008264 18.161157,53.677686 32.6033058,53.677686 C47.0454545,53.677686 58.822314,41.9008264 58.822314,27.4586777 C58.822314,13.0165289 46.9834711,1.23966942 32.5413223,1.23966942 C25.4132231,1.23966942 18.7809917,4.02892562 13.7603306,9.17355372 C13.5123967,9.4214876 13.1404959,9.4214876 12.892562,9.17355372 C12.6446281,8.92561983 12.6446281,8.55371901 12.892562,8.30578512 C18.0991736,2.97520661 25.1033058,-7.10542736e-15 32.5413223,-7.10542736e-15 C47.6652893,-7.10542736e-15 60,12.3347107 60,27.4586777 L60,27.4586777 Z"></path>
            </g>
        </g>
    </g>
</svg>