<?xml version="1.0" encoding="UTF-8"?>
<svg width="56px" height="60px" viewBox="0 0 56 60" version="1.1" xmlns="http://www.w3.org/2000/svg" xmlns:xlink="http://www.w3.org/1999/xlink">
    <!-- Generator: Sketch 43.1 (39012) - http://www.bohemiancoding.com/sketch -->
    <title>Fill 1</title>
    <desc>Created with Sketch.</desc>
    <defs></defs>
    <g id="Page-1" stroke="none" stroke-width="1" fill="none" fill-rule="evenodd">
        <g id="Desktop-HD-Copy-5" transform="translate(-796.000000, -4113.000000)" fill="#941d80">
            <g id="Fill-1" transform="translate(796.000000, 4113.000000)">
                <path d="M5.10769231,56.5532308 L5.10769231,59.3224615 C5.10769231,59.6923077 5.35384615,59.9378462 5.72307692,59.9378462 C6.09230769,59.9378462 6.33846154,59.6923077 6.33846154,59.3224615 L6.33846154,56.5532308 L7.32307692,56.5532308 C9.6,56.5532308 11.4461538,54.7070769 11.4461538,52.4307692 C11.4461538,50.1538462 9.6,48.3076923 7.32307692,48.3076923 L4.12307692,48.3076923 C2.52307692,48.3076923 1.23076923,47.0147692 1.23076923,45.4147692 C1.23076923,43.8153846 2.52307692,42.5224615 4.12307692,42.5224615 L9.72307692,42.5224615 C10.0923077,42.5224615 10.3384615,42.2769231 10.3384615,41.9070769 C10.3384615,41.5384615 10.0923077,41.2916923 9.72307692,41.2916923 L6.33846154,41.2916923 L6.33846154,38.5846154 C6.33846154,38.2147692 6.09230769,37.9686154 5.72307692,37.9686154 C5.35384615,37.9686154 5.10769231,38.2147692 5.10769231,38.5846154 L5.10769231,41.2916923 L4.12307692,41.2916923 C1.84615385,41.2916923 0,43.1378462 0,45.4147692 C0,47.6923077 1.84615385,49.5384615 4.12307692,49.5384615 L7.32307692,49.5384615 C8.92307692,49.5384615 10.2153846,50.8301538 10.2153846,52.4307692 C10.2153846,54.0301538 8.92307692,55.3224615 7.32307692,55.3224615 L1.6,55.3224615 C1.23076923,55.3224615 0.984615385,55.5686154 0.984615385,55.9378462 C0.984615385,56.3076923 1.23076923,56.5532308 1.6,56.5532308 L5.10769231,56.5532308 Z M51.0153846,48.3686154 L47.8153846,48.3686154 C46.2153846,48.3686154 44.9230769,47.0769231 44.9230769,45.4763077 C44.9230769,43.8763077 46.2153846,42.5846154 47.8153846,42.5846154 L53.4153846,42.5846154 C53.7846154,42.5846154 54.0307692,42.3378462 54.0307692,41.9692308 C54.0307692,41.5993846 53.7846154,41.3538462 53.4153846,41.3538462 L50.0307692,41.3538462 L50.0307692,38.6455385 C50.0307692,38.2763077 49.7846154,38.0301538 49.4153846,38.0301538 C49.0461538,38.0301538 48.8,38.2763077 48.8,38.6455385 L48.8,41.3538462 L47.8153846,41.3538462 C45.5384615,41.3538462 43.6923077,43.2 43.6923077,45.4763077 C43.6923077,47.7532308 45.5384615,49.5993846 47.8153846,49.5993846 L51.0153846,49.5993846 C52.6153846,49.5993846 53.9076923,50.8923077 53.9076923,52.4916923 C53.9076923,54.0916923 52.6153846,55.3846154 51.0153846,55.3846154 L45.2923077,55.3846154 C44.9230769,55.3846154 44.6769231,55.6301538 44.6769231,56 C44.6769231,56.3686154 44.9230769,56.6153846 45.2923077,56.6153846 L48.8,56.6153846 L48.8,59.3846154 C48.8,59.7532308 49.0461538,60 49.4153846,60 C49.7846154,60 50.0307692,59.7532308 50.0307692,59.3846154 L50.0307692,56.6153846 L51.0153846,56.6153846 C53.2923077,56.6153846 55.1384615,54.7692308 55.1384615,52.4916923 C55.1384615,50.2147692 53.2923077,48.3686154 51.0153846,48.3686154 L51.0153846,48.3686154 Z M27.6307692,0 C27.2615385,0 27.0153846,0.245538462 27.0153846,0.615384615 L27.0153846,3.32246154 L26.0307692,3.32246154 C23.7538462,3.32246154 21.9076923,5.16861538 21.9076923,7.44553846 C21.9076923,9.72246154 23.7538462,11.5686154 26.0307692,11.5686154 L29.2307692,11.5686154 C30.8307692,11.5686154 32.1230769,12.8609231 32.1230769,14.4615385 C32.1230769,16.0609231 30.8307692,17.3532308 29.2307692,17.3532308 L23.5076923,17.3532308 C23.1384615,17.3532308 22.8923077,17.5993846 22.8923077,17.9686154 C22.8923077,18.3378462 23.1384615,18.584 23.5076923,18.584 L27.0153846,18.584 L27.0153846,21.3532308 C27.0153846,21.7224615 27.2615385,21.9686154 27.6307692,21.9686154 C28,21.9686154 28.2461538,21.7224615 28.2461538,21.3532308 L28.2461538,18.584 L29.2307692,18.584 C31.5076923,18.584 33.3538462,16.7378462 33.3538462,14.4615385 C33.3538462,12.184 31.5076923,10.3378462 29.2307692,10.3378462 L26.0307692,10.3378462 C24.4307692,10.3378462 23.1384615,9.04553846 23.1384615,7.44553846 C23.1384615,5.84615385 24.4307692,4.55323077 26.0307692,4.55323077 L31.6307692,4.55323077 C32,4.55323077 32.2461538,4.30769231 32.2461538,3.93784615 C32.2461538,3.56861538 32,3.32246154 31.6307692,3.32246154 L28.2461538,3.32246154 L28.2461538,0.615384615 C28.2461538,0.245538462 27.9384615,0 27.6307692,0 L27.6307692,0 Z M16.4923077,45.5384615 L26.9538462,39.5076923 L26.9538462,27.3846154 C26.9538462,27.0147692 27.2,26.7692308 27.5692308,26.7692308 C27.9384615,26.7692308 28.1846154,27.0147692 28.1846154,27.3846154 L28.1846154,39.4455385 L38.6461538,45.4763077 C38.9538462,45.6615385 39.0153846,46.0301538 38.8923077,46.3378462 C38.7692308,46.5224615 38.5846154,46.6455385 38.3384615,46.6455385 C38.2153846,46.6455385 38.1538462,46.6455385 38.0307692,46.5846154 L27.5692308,40.5532308 L17.1076923,46.5846154 C16.9846154,46.6455385 16.9230769,46.6455385 16.8,46.6455385 C16.6153846,46.6455385 16.3692308,46.5224615 16.2461538,46.3378462 C16.1230769,46.0301538 16.1846154,45.6615385 16.4923077,45.5384615 L16.4923077,45.5384615 Z"></path>
            </g>
        </g>
    </g>
</svg>