<?xml version="1.0" encoding="UTF-8"?>
<svg width="60px" height="60px" viewBox="0 0 60 60" version="1.1" xmlns="http://www.w3.org/2000/svg" xmlns:xlink="http://www.w3.org/1999/xlink">
    <!-- Generator: Sketch 43.1 (39012) - http://www.bohemiancoding.com/sketch -->
    <title>Fill 1</title>
    <desc>Created with Sketch.</desc>
    <defs></defs>
    <g id="Page-1" stroke="none" stroke-width="1" fill="none" fill-rule="evenodd">
        <g id="Desktop-HD-Copy-5" transform="translate(-794.000000, -4224.000000)" fill="#941d80">
            <g id="Fill-1" transform="translate(794.000000, 4224.000000)">
                <path d="M29.9998384,18.8889907 C30.3702107,18.8889907 30.6171256,19.1359056 30.6171256,19.5062779 L30.6171256,25.617422 C30.6171256,25.9877943 30.3702107,26.2347092 29.9998384,26.2347092 C29.629466,26.2347092 29.3825511,25.9877943 29.3825511,25.617422 L29.3825511,19.5062779 C29.3825511,19.1976343 29.629466,18.8889907 29.9998384,18.8889907 M40.3702646,24.1359325 L40.3702646,35.8643908 C40.3702646,41.5434337 35.74061,46.234817 29.9998384,46.234817 C24.2590667,46.234817 19.6294121,41.6051624 19.6294121,35.8643908 L19.6294121,24.1359325 C19.6294121,18.4568896 24.2590667,13.7655063 29.9998384,13.7655063 C35.74061,13.7655063 40.3702646,18.4568896 40.3702646,24.1359325 M4.01204404,45.6792584 C6.29600696,50.1237268 9.87627317,53.6422643 14.2590128,55.987956 C19.4442259,58.70402 24.7528965,60.0003233 29.9998384,60.0003233 C35.4319664,60.0003233 40.740637,58.5805625 45.493749,55.6793123 C54.567872,50.1854556 60,40.6175028 60,30.0001616 C60,13.4568626 46.5431374,0 29.9998384,0 C29.629466,0 29.3825511,0.246914911 29.3825511,0.617287276 L29.3825511,12.5926604 C23.2714071,12.9013041 18.3948376,17.9630597 18.3948376,24.1359325 L18.3948376,35.8643908 C18.3948376,42.2224497 23.5800507,47.4693915 29.9998384,47.4693915 C36.419626,47.4693915 41.6048392,42.2841784 41.6048392,35.8643908 L41.6048392,24.1359325 C41.6048392,17.9630597 36.7282697,12.9013041 30.6171256,12.5926604 L30.6171256,1.23457455 C46.172765,1.54321819 58.7654254,14.3210648 58.7654254,30.0001616 C58.7654254,40.123673 53.5802123,49.3829821 44.8764617,54.629924 C35.9257962,60.062052 24.9380827,60.1855094 14.8763001,54.8768389 C10.6787466,52.7163334 7.34539533,49.3212534 5.12316114,45.1236999 C-1.6669989,32.0989384 0.555235295,17.7161448 10.8639328,8.58029314 C11.1108477,8.33337823 11.1108477,7.96300586 10.9256615,7.71609095 C10.6787466,7.46917604 10.3083743,7.46917604 10.0614593,7.65436223 C-0.679339258,17.1605863 -3.02503091,32.0989384 4.01204404,45.6792584"></path>
            </g>
        </g>
    </g>
</svg>