<?xml version="1.0" encoding="iso-8859-1"?>
<!-- Generator: Adobe Illustrator 19.0.0, SVG Export Plug-In . SVG Version: 6.00 Build 0)  -->
<svg xmlns="http://www.w3.org/2000/svg" xmlns:xlink="http://www.w3.org/1999/xlink" version="1.1" id="Capa_1" x="0px" y="0px" viewBox="0 0 512.001 512.001" style="enable-background:new 0 0 512.001 512.001;" xml:space="preserve" width="50px">
<g>
	<g>
		<path d="M289.033,0C168.795,0,70.532,95.687,66.271,214.908C29.391,216.964,0,247.52,0,284.903    c0,38.705,31.488,70.193,70.193,70.193c2.246,0,4.525,0.198,6.755,0.594l5.631,0.991v31.447v74.324v19.794    c0,16.409,13.345,29.754,29.754,29.754h72.622c16.408,0,29.754-13.345,29.754-29.754c0-3.014-0.454-6.003-1.363-8.877    l-28.193-44.561c-1.578-2.461-2.898-5.046-4.162-7.655h5.846c31.356,16.194,66.667,24.775,102.194,24.775    c122.946,0,222.968-100.021,222.968-222.968C512,100.014,411.978,0,289.033,0z M423.845,66.808    c-8.572,6.45-24.08,16.476-46.484,24.997c-16.145-34.263-36.377-57.575-51.927-72.01C362.62,26.443,396.378,43.058,423.845,66.808    z M297.29,18.169c10.95,7.754,41.299,32.297,63.942,79.055c-17.928,5.301-39.283,9.141-63.942,9.876V18.169z M297.29,123.623    c27.434-0.759,51.068-5.054,70.73-11.008c11,27.326,18.985,61.085,19.944,102.094h-49.383v-5.764    c0-23.288-18.324-42.207-41.291-43.528V123.623z M373.058,319.563c-1.619,4.773-3.345,9.34-5.137,13.774    c-2.865-0.867-5.821-1.693-8.844-2.485C364.313,327.829,369.02,324.014,373.058,319.563z M338.581,321.231v-80.913    c18.82,3.84,33.032,20.513,33.032,40.456C371.613,300.718,357.401,317.391,338.581,321.231z M359.945,231.226h28.019    c-0.264,11.462-1.048,22.404-2.337,32.76C381.415,250.146,372.116,238.535,359.945,231.226z M280.774,18.185v88.914    c-24.625-0.735-45.956-4.567-63.868-9.86C239.534,50.639,269.824,25.988,280.774,18.185z M280.774,123.624v43.843    c-29.291,9.752-59.252,18.01-89.468,24.972c2.808-31.133,9.794-57.583,18.779-79.814    C229.747,118.57,253.357,122.864,280.774,123.624z M252.622,19.795C237.097,34.23,216.898,57.609,200.77,91.83    c-22.446-8.523-37.962-18.565-46.551-25.022C181.685,43.066,215.436,26.443,252.622,19.795z M141.939,78.286    c9.034,7.176,26.393,19.027,52.215,28.887c-9.753,24.659-17.152,54.173-19.72,89.113c-10.86,2.304-21.735,4.46-32.636,6.384    l-58.971,10.404C85.314,160.694,107.421,113.376,141.939,78.286z M49.548,334.435c-19.374-8.101-33.032-27.251-33.032-49.532    s13.659-41.431,33.032-49.54V334.435z M197.846,479.249c0.231,0.983,0.347,1.982,0.347,2.998c0,7.301-5.937,13.238-13.238,13.238    h-72.622c-7.3,0-13.238-5.937-13.238-13.238v-19.794h16.516c9.108,0,16.516-7.407,16.516-16.516v-41.291    c0-9.109-7.408-16.516-16.516-16.516H99.097v-28.531l42.703,7.539c5.046,0.891,10.067,1.982,15.104,2.956v18.639    c0,17.392,4.963,34.337,14.344,49.003L197.846,479.249z M99.097,445.937v-41.291h16.516v41.291H99.097z M206.452,396.388    c0,4.55-3.707,8.258-8.258,8.258h-22.858c-1.148-5.212-1.915-10.521-1.915-15.922v-15.401c11.049,2.328,22.058,4.88,33.032,7.589    V396.388z M214.016,415.29c5.425-4.55,8.952-11.289,8.952-18.902v-4.567c10.438,14.708,20.967,26.046,29.894,34.386    C239.575,423.845,226.56,420.171,214.016,415.29z M280.774,427.761c-7.061-4.988-22.198-16.945-38.078-37.178    c12.784,3.691,25.502,7.573,38.078,11.76V427.761z M286.174,386.733c-4.517-1.503-9.117-2.832-13.659-4.277v-19.101H256v13.931    c-36.551-10.9-73.852-19.803-111.327-26.418l-64.859-11.445c-3.179-0.561-6.416-0.842-9.62-0.842    c-1.396,0-2.758-0.107-4.129-0.206V231.433c1.371-0.099,2.733-0.206,4.129-0.206h4.129l70.351-12.288    c37.475-6.615,74.776-15.526,111.327-26.417v154.318h16.516V187.351c4.542-1.445,9.142-2.766,13.659-4.277    c2.791-0.925,5.69-1.396,8.621-1.396c15.038,0,27.268,12.23,27.268,27.268v151.916c0,15.038-12.23,27.268-27.268,27.268    C291.864,388.129,288.957,387.658,286.174,386.733z M297.29,427.744V404.39c22.966-1.32,41.291-20.241,41.291-43.527v-17.689    c8.043,1.536,15.566,3.378,22.578,5.442C338.522,395.29,308.224,419.948,297.29,427.744z M325.433,426.142    c15.558-14.443,35.799-37.773,51.944-72.052c22.355,8.514,37.896,18.565,46.476,25.03    C396.386,402.87,362.628,419.494,325.433,426.142z M436.125,367.65c-9.034-7.151-26.442-18.969-52.199-28.812    c11.429-28.896,19.622-64.463,20.563-107.611h57.962v-16.516h-57.963c-0.941-43.115-9.117-78.666-20.538-107.544    c25.798-9.86,43.148-21.702,52.174-28.871c34.874,35.452,57.047,83.39,59.152,136.424h-16.31v16.516h16.31    C493.171,284.259,470.999,332.198,436.125,367.65z" fill="#FFFFFF"/>
	</g>
</g>
<g>
</g>
<g>
</g>
<g>
</g>
<g>
</g>
<g>
</g>
<g>
</g>
<g>
</g>
<g>
</g>
<g>
</g>
<g>
</g>
<g>
</g>
<g>
</g>
<g>
</g>
<g>
</g>
<g>
</g>
</svg>
