<?xml version="1.0" encoding="iso-8859-1"?>
<!-- Generator: Adobe Illustrator 19.0.0, SVG Export Plug-In . SVG Version: 6.00 Build 0)  -->
<svg version="1.1" id="Layer_1" xmlns="http://www.w3.org/2000/svg" xmlns:xlink="http://www.w3.org/1999/xlink" x="0px" y="0px"
	 viewBox="699 322 150 150" style="enable-background:new 699 322 150 150;" xml:space="preserve">
<g>
	<path style="fill:#FFFFFF;" d="M782.555,419.594c0.803,1.019,1.646,0.921,2.704,0.51c1.548-0.627,2.92,0.588,2.567,2.195
		c-0.078,0.353-0.255,0.686-0.314,1.019c-0.118,0.764-0.372,1.568-0.196,2.273c0.431,1.666-0.137,2.998-0.96,4.331
		c-0.607,0.96-1.235,1.901-1.823,2.842c-0.157,0.255-0.274,0.529-0.333,0.803c-0.118,0.51-0.039,0.941,0.627,0.921
		c1.254-0.02,2.528,0,3.782-0.098c0.255-0.02,0.627-0.431,0.686-0.706c0.196-1.117,0.431-2.254,0.392-3.371
		c-0.059-1.999,0.392-3.782,1.803-5.174c0.745-0.725,1.333-1.391,1.607-2.45c0.549-2.214,2.312-3.547,4.507-3.939
		c2.234-0.392,4.429-0.98,6.624-1.568c1.646-0.431,3.194-1.352,4.997-0.999c0.784,0.157,1.372-0.176,2.018-0.666
		c1.666-1.254,1.587-1.803,3.723-0.431c0.157,0.098,0.353,0.176,0.529,0.235c1.666,0.51,2.979,1.529,4.292,2.626
		c1.568,1.333,3.214,2.548,4.899,3.723c0.49,0.353,1.176,0.529,1.803,0.588c1.725,0.118,3.018,1.372,2.979,3.057
		c-0.059,2.626-1.47,4.664-2.94,6.663c-1.019,1.391-2.175,2.685-2.469,4.703c1.274-0.157,2.45-0.372,3.645-0.451
		c1.058-0.078,1.489-0.647,1.627-1.607c0.039-0.274,0.059-0.725,0.235-0.803c0.745-0.392,0.705-0.999,0.666-1.666
		c-0.02-0.255,0.176-0.549,0.294-0.803c1.313-2.606,2.273-5.311,2.802-8.192c0.137-0.764,0.588-1.47,0.941-2.254
		c0.686,0.392,1.215,0.647,1.685,0.98c1.881,1.274,3.978,2.293,5.291,4.253c1.431,2.156,2.802,4.351,4.174,6.526
		c0.451,0.725,1.156,0.96,1.685,0.372c0.608-0.686,1.058-1.529,1.45-2.371c0.098-0.216-0.216-0.725-0.47-0.999
		c-0.568-0.588-1.47-0.999-1.783-1.685c-0.49-1.078-1.097-1.842-2.195-2.234c-0.059-0.02-0.098-0.078-0.137-0.137
		c-1.92-2.587-3.9-5.115-5.742-7.76c-0.588-0.862-1.137-1.607-2.136-1.999c-1.627-0.627-2.41-2.352-2.136-4.037
		c0.627-3.802,0.568-7.506-2.156-10.641c-0.137-0.157-0.196-0.353-0.392-0.745c0.607,0.098,1.078,0.039,1.411,0.235
		c0.96,0.588,1.862,1.254,2.802,1.881c0.314,0.216,0.686,0.333,1.019,0.49c-0.137-0.353-0.196-0.764-0.411-1.058
		c-1.333-1.803-3.116-2.802-5.33-3.136c-0.235-0.039-0.568-0.157-0.647-0.333c-1.176-2.352-3.488-2.783-5.664-3.096
		c-3.351-0.47-6.741-0.568-10.132-0.862c-0.745-0.059-1.489-0.176-2.214-0.353c-2.136-0.47-4.233-0.999-6.369-1.47
		c-1.646-0.372-3.332-0.588-4.958-1.039c-2.979-0.803-5.899-1.783-8.878-2.567c-2.763-0.725-5.526-0.98-8.348,0.02
		c-3.449,1.215-6.291,3.018-8.192,6.349c-0.96,1.705-2.548,3.096-4.017,4.488c-1.803,1.725-3.175,3.606-3.469,6.154
		c-0.059,0.49-0.314,1.078-0.666,1.352c-1.019,0.803-2.038,1.705-3.234,2.156c-1.96,0.725-3.253,2.058-4.39,3.704
		c-0.96,1.391-2.293,2.214-4.057,2.038c-0.803-0.078-1.587-0.216-2.548-0.353c0.157,0.255,0.235,0.529,0.411,0.627
		c3.136,1.823,5.722,1.96,8.662-0.647c0.607-0.529,1.176-1.137,1.764-1.685c0.431-0.412,0.725-0.353,1.058,0.216
		c0.451,0.823,1.039,1.568,1.568,2.352c0.216,0.314,0.392,0.627,0.666,1.039c-0.372,0.078-0.588,0.098-0.803,0.157
		c-0.216,0.078-0.431,0.196-0.627,0.294c0.176,0.157,0.314,0.412,0.529,0.47c0.647,0.176,1.333,0.255,1.999,0.431
		c0.588,0.157,1.313,0.196,1.705,0.568c1.137,1.097,2.156,2.332,3.194,3.527c0.51,0.568,0.372,1.078-0.118,1.627
		c-2.195,2.469-4.351,4.978-6.545,7.447c-0.411,0.451-0.529,0.901,0,1.333c0.764,0.627,3.567,0.412,4.488-0.47
		c0.823-0.784,1.411-1.529,1.47-2.665c0.02-0.235,0.235-0.451,0.411-0.647c0.549-0.647,1.117-1.274,1.666-1.921
		c0.49-0.608,0.98-0.941,1.666-0.216c0.176,0.176,0.549,0.235,0.823,0.216c0.921-0.118,1.862-0.255,2.763-0.451
		c1.235-0.274,1.783-1.097,1.666-2.352c-0.059-0.784-0.157-1.568-0.157-2.332C781.399,421.064,781.85,420.339,782.555,419.594z"/>
	<g>
		<path style="fill:#FFFFFF;" d="M704.735,435.291c-0.078,0.059-0.176,0.118-0.255,0.196c-0.078,0.098-0.157,0.216-0.216,0.314
			c-0.039-0.039-0.118-0.078-0.137-0.118c-0.02-0.176-0.039-0.372,0-0.529c0.039-0.118,0.216-0.176,0.372-0.314
			c-0.706-0.372-0.627-0.941-0.627-1.529c0-0.803-0.098-1.627-0.176-2.43c-0.078-0.843-0.157-1.666-0.235-2.489
			c-0.118-0.98-0.255-1.96-0.372-2.959c-0.078-0.666-0.176-1.352-0.274-2.018c-0.118-0.803-0.235-1.607-0.372-2.41
			c-0.157-0.901-0.314-1.803-0.49-2.704c-0.059-0.353-0.176-0.686-0.235-1.039c-0.02-0.137,0.02-0.274,0.039-0.51
			c-0.333-0.372-0.333-0.98-0.431-1.529c-0.176-0.941-0.294-1.881-0.412-2.822c-0.098-0.725-0.176-1.47-0.235-2.214
			c-0.078-0.882-0.157-1.764-0.235-2.646c-0.137-1.627-0.314-3.234-0.392-4.86c-0.059-1.274-0.059-2.548-0.039-3.802
			c0.039-1.293,0.098-2.587,0.235-3.861c0.137-1.117,0.353-2.234,0.608-3.332c0.314-1.352,0.666-2.704,1.137-3.998
			c0.451-1.254,1.019-2.469,1.607-3.665c0.803-1.607,1.783-3.116,2.92-4.527c0.627-0.784,1.293-1.548,2.018-2.254
			c0.529-0.529,0.725-1.195,0.98-1.823c0.568-1.391,1.274-2.724,2.097-3.998c0.745-1.137,1.587-2.175,2.587-3.077
			c1.097-0.98,2.332-1.725,3.763-2.038c0.843-0.196,1.705-0.274,2.567-0.078c0.549,0.118,1.058,0.059,1.548-0.216
			c0.764-0.412,1.607-0.666,2.469-0.803c0.647-0.098,1.254,0,1.823,0.333c0.529,0.314,1.235,0.235,1.646-0.372
			c0.529-0.784,1.333-0.882,2.097-1.058c0.745-0.176,1.529-0.274,2.293-0.372c0.392-0.059,0.804-0.059,1.215-0.098
			c0.059,0.529,1.372,1.764,1.881,1.705c-0.255-0.235-0.451-0.431-0.666-0.608c-0.196-0.176-0.274-0.353-0.059-0.568
			c0.216-0.216,0.49-0.274,0.686-0.098c0.235,0.216,0.47,0.451,0.686,0.686c0.196,0.196,0.196,0.196,0.431-0.039
			c-0.274-0.255-0.549-0.51-0.823-0.764c0.02-0.039,0.039-0.078,0.059-0.118c0.235,0.078,0.49,0.137,0.725,0.255
			c0.255,0.118,0.49,0.137,0.745,0c0.96-0.47,1.96-0.529,2.959-0.235c0.804,0.235,1.568,0.647,2.371,0.921
			c0.823,0.274,1.666,0.49,2.489,0.725c1,0.274,2.019,0.47,2.998,0.784c0.529,0.176,0.98,0.568,1.45,0.862
			c0.706,0.431,1.411,0.862,1.921,1.529c0.274,0.353,0.51,0.725,0.431,1.254c-0.274-0.196-0.51-0.353-0.725-0.549
			c-0.529-0.47-1.156-0.431-1.783-0.294c-0.412,0.098-0.647,0.588-0.608,1.176c0.235-0.255,0.451-0.47,0.627-0.706
			c0.431-0.549,0.627-0.568,1.137-0.078c0.176,0.176,0.353,0.392,0.568,0.529c0.235,0.157,0.529,0.274,0.823,0.431
			c0.039,0.235,0.059,0.568,0.157,0.882c0.235,0.706,0.862,1.039,1.45,1.391c1.058,0.666,2.136,1.313,3.175,1.979
			c0.666,0.431,0.901,1.725,0.47,2.312c-0.353,0.47-0.823,0.529-1.352,0.431c-1.568-0.294-3.175-0.49-4.782-0.47
			c-0.333,0-0.666,0.039-0.98,0.157c-0.431,0.157-0.568,0.588-0.666,0.999c-0.294,1.215-0.314,2.43,0.02,3.625
			c0.216,0.764,0.568,1.509,0.882,2.254c0.196,0.431,0.118,0.647-0.353,0.823c-1.039,0.372-2.273-0.098-2.979-0.999
			c-0.47-0.588-0.999-1.156-1.587-1.627c-0.804-0.627-1.215-0.412-1.627,0.431c-0.098,0.216-0.196,0.431-0.314,0.627
			c-0.216,0.353-0.333,0.353-0.568,0.02c-0.314-0.47-0.607-0.96-0.921-1.431c-0.176-0.255-0.353-0.51-0.529-0.745
			c-0.411-0.568-1.058-0.764-1.685-0.784c-0.686-0.02-1.411,0.078-2.077,0.235c-0.686,0.176-1.333,0.51-1.979,0.764
			c-0.333,0.137-0.47,0.392-0.49,0.725c-0.098,1.137-0.157,2.273-0.274,3.39c-0.059,0.568-0.176,1.137-0.314,1.685
			c-0.294,1.156-0.568,2.312-0.941,3.43c-0.314,0.98-0.725,1.921-1.117,2.881c-0.137,0.353-0.098,0.647,0.059,0.98
			c0.706,1.548,1.431,3.096,2.038,4.703c0.392,1.019,0.666,2.077,0.862,3.155c0.137,0.784,0.49,1.45,0.745,2.175
			c0.451,1.195,0.98,2.371,1.431,3.567c0.51,1.313,1.411,2.195,2.685,2.724c0.706,0.294,1.431,0.529,1.999,1.058
			c0.353,0.333,0.568,0.686,0.549,1.215c-0.02,0.47-0.294,0.862-0.862,0.451c-0.764-0.549-1.529-0.588-2.371-0.353
			c-0.901,0.255-1.666-0.039-2.371-0.568c-1.117-0.843-2.195-1.705-3.273-2.587c-0.314-0.255-0.706-0.314-1.039-0.49
			c-0.549-0.255-1.078-0.627-1.489-1.058c-0.921-0.96-1.783-1.96-2.822-2.783c-0.529-0.431-1.039-0.882-1.568-1.313
			c-0.098-0.078-0.333-0.059-0.431,0.02c-0.51,0.372-0.823,0.882-1.039,1.45c-0.137,0.372-0.294,0.666-0.647,0.882
			c-0.745,0.451-0.803,0.882-0.333,1.783c0.647,1.254,1.568,2.332,2.528,3.351c0.49,0.529,1.019,1.039,1.509,1.568
			c0.823,0.882,1.627,1.764,2.391,2.704c0.216,0.255,0.294,0.627,0.353,0.96c0.333,1.842,0.372,3.684,0.255,5.546
			c-0.098,1.529-0.294,3.038-0.666,4.527c-0.274,1.117-0.549,2.234-0.882,3.332c-0.196,0.666-0.568,1.274-0.784,1.94
			c-0.098,0.294-0.02,0.666,0.059,0.98c0.078,0.314,0.372,0.49,0.686,0.451c0.588-0.059,1.156-0.137,1.725-0.274
			c0.627-0.137,1.215-0.392,1.842-0.549c0.255-0.059,0.549-0.078,0.784,0c0.176,0.059,0.392,0.274,0.412,0.451
			c0.059,0.529,0.039,1.058,0,1.587c-0.02,0.353-0.392,0.647-0.882,0.745c-0.588,0.118-1.195,0.255-1.783,0.353
			c-0.568,0.098-1.156,0.196-1.744,0.196c-1.333,0-2.646-0.059-3.978-0.078c-0.686-0.02-1.391-0.039-2.077-0.039
			c-1.333-0.02-2.665-0.137-3.978-0.451c-0.725-0.176-1.117-0.686-1.293-1.372c-0.412-1.685-0.392-3.41-0.314-5.134
			c0.02-0.51-0.118-0.941-0.529-1.293c-0.882-0.745-1.744-1.529-2.626-2.273c-0.235-0.196-0.47-0.157-0.607,0.137
			c-0.706,1.411-1.45,2.802-2.117,4.233c-0.372,0.823-0.725,1.666-0.725,2.587c0,0.51,0.294,0.803,0.804,0.843
			c0.784,0.039,1.548,0.078,2.332,0.137c0.764,0.078,0.96,0.392,0.999,0.96c0.059,0.941-0.372,1.333-1.235,1.411
			c-0.745,0.059-1.47,0.235-2.195,0.333c-1.137,0.137-2.273,0.255-3.43,0.353c-1.431,0.137-2.842,0.137-4.272-0.059
			c-0.235-0.039-0.49-0.137-0.706-0.235c-0.176-0.098-0.235-0.235-0.059-0.431c0.137-0.137,0.196-0.353,0.274-0.529
			C704.793,435.35,704.774,435.311,704.735,435.291z M720.118,389.532c-0.02,0-0.039-0.02-0.059-0.02
			c-0.039,0.059-0.078,0.098-0.118,0.157c-0.549,1.215-0.882,2.489-0.745,3.821c0.098,0.901,0.255,1.823,0.47,2.704
			c0.235,0.901,0.529,1.783,1.195,2.469c1.019,1.058,2.077,2.097,3.136,3.136c0.353,0.333,0.745,0.608,1.117,0.921
			c0.02-0.02,0.039-0.039,0.078-0.078c-0.157-0.216-0.314-0.431-0.49-0.608c-1.137-1.215-2.293-2.43-3.43-3.645
			c-0.784-0.843-1.391-1.823-1.627-2.959c-0.235-1.137-0.059-2.293,0.059-3.43C719.844,391.158,720.001,390.355,720.118,389.532z
			 M714.122,423.592c-3.292-2.293-5.997-5.115-7.839-8.74c0.568,2.45,2.136,4.292,3.704,6.134
			C711.359,421.867,712.436,423.18,714.122,423.592z M729.917,370.699c0,0.255-0.039,0.49,0,0.686
			c0.314,1.117,0.588,2.254,0.98,3.351c0.392,1.097,0.96,2.156,1.94,2.842c0.862,0.608,1.764,1.117,2.489,1.94
			c0-0.118-0.02-0.216-0.078-0.294c-0.412-0.451-0.745-0.999-1.254-1.333c-1.195-0.823-2.019-1.881-2.548-3.194
			C730.917,373.384,730.427,372.051,729.917,370.699z M737.736,368.191c0.451-0.02,0.882-0.059,1.333-0.039
			c0.686,0.02,1.352,0.039,2.019-0.196c0.49-0.176,0.901-0.823,0.823-1.293c-0.059-0.412-0.647-0.862-1.215-0.901
			c0.235,0.216,0.431,0.392,0.627,0.568c0.196,0.176,0.216,0.412,0.098,0.608c-0.196,0.333-0.49,0.529-0.901,0.568
			c-0.647,0.059-1.274,0.118-1.921,0.235C738.265,367.818,737.913,367.916,737.736,368.191z M750.866,371.307
			c0-0.02,0-0.039,0-0.078c-0.078-0.039-0.137-0.078-0.216-0.098c-0.176-0.02-0.431-0.078-0.529,0
			c-0.098,0.098-0.059,0.353-0.078,0.529c0,0.098,0.02,0.216,0.039,0.314c0.059,0.333,0.372,0.627,0.686,0.627
			c0.314,0,0.568-0.118,0.686-0.451c-0.647,0.157-0.862-0.039-0.901-0.784C750.67,371.346,750.768,371.326,750.866,371.307z"/>
	</g>
</g>
</svg>
