<?xml version="1.0" encoding="iso-8859-1"?>
<!-- Generator: Adobe Illustrator 19.0.0, SVG Export Plug-In . SVG Version: 6.00 Build 0)  -->
<svg version="1.1" id="Layer_1" xmlns="http://www.w3.org/2000/svg" xmlns:xlink="http://www.w3.org/1999/xlink" x="0px" y="0px"
	 viewBox="699 321 150 150" style="enable-background:new 699 321 150 150;" xml:space="preserve">
<g>
	<g>
		<path style="fill:#FFFFFF;" d="M725.059,399.015c1.036,0.635,2.339,1.086,3.676,1.387c0.117,0.017,0.234,0.284,0.234,0.451
			c0.033,0.585-0.067,1.203,0.05,1.771c0.134,0.702-0.05,1.303-0.267,1.921c-0.033,0.1-0.083,0.217-0.083,0.317
			c-0.084,0.852-0.134,1.704-0.234,2.556c-0.084,0.635-0.167,1.303-0.702,1.738c-0.702,0.585-1.387,1.186-1.788,2.022
			c-0.1,0.217-0.117,0.735-0.033,0.769c0.368,0.15,0.284,0.401,0.301,0.668c0.017,0.251,0.033,0.518,0.134,0.752
			c0.535,1.47,2.523,2.823,4.11,2.757c0.351-0.017,0.986,0,0.986-0.568c0-0.769-0.15-1.52-0.668-2.172
			c-0.384-0.484-0.752-1.036-0.952-1.604c-0.568-1.587-0.184-2.991,1.069-4.093c0.869-0.769,1.704-1.537,2.272-2.606
			c0.251-0.468,0.785-0.768,1.22-1.119c0.067-0.05,0.267,0.033,0.384,0.117c0.501,0.334,0.952,0.785,1.504,1.002
			c1.771,0.735,3.609,0.652,5.046-0.601c0.852-0.735,1.537-0.902,2.489-0.535c0.167,0.067,0.384,0.184,0.451,0.334
			c0.368,0.769,0.969,1.22,1.738,1.504c0.368,0.134,0.835,0.217,1.086,0.485c0.468,0.518,0.802,1.153,1.22,1.754
			c-0.284,0.234-0.551,0.368-0.702,0.585c-0.401,0.601-0.936,1.186-1.069,1.854c-0.217,1.119,0.084,2.222,0.618,3.241
			c0.368,0.702,0.986,0.869,1.704,0.785c0.518-0.067,0.485-0.585,0.635-0.936c0.15-0.368,0.15-0.885,0.418-1.119
			c0.368-0.334,0.334-0.685,0.384-1.086c0.033-0.334,0.1-0.718,0.284-0.969c0.785-1.053,0.802-2.272-0.033-3.224
			c-0.434-0.501-0.969-0.902-1.37-1.437c-0.301-0.401-0.585-0.919-0.635-1.403c-0.084-0.936-0.284-1.821-0.769-2.623
			c-0.134-0.217-0.267-0.434-0.401-0.652c1.186-0.952,1.754-2.473,3.208-3.057c0.217,0.134,0.451,0.284,0.702,0.384
			c0.434,0.167,0.752,0.418,0.902,0.885c0.284,0.835,0.835,1.52,1.654,1.854c0.885,0.368,1.387,1.186,2.189,1.671
			c0.685,0.401,1.303,0.835,2.139,0.434c0.083-0.05,0.217-0.017,0.317,0c0.869,0.167,1.403-0.251,1.487-1.136
			c0.017-0.134,0.05-0.301,0.117-0.418c0.635-1.103,1.186-2.222,1.37-3.525c0.1-0.702,0.819-1.086,1.487-0.902
			c0.852,0.234,1.437-0.1,1.57-0.969c0.067-0.434,0.017-0.885,0.017-1.353c0.418,0.368,0.819,0.752,1.27,1.103
			c1.002,0.802,1.938,1.704,3.191,2.155c0.919,0.334,1.804,0.334,2.707-0.284c-1.069-0.1-1.921-0.501-2.573-1.203
			c-0.685-0.752-1.286-1.621-1.921-2.423c-0.518-0.652-1.069-1.286-1.57-1.905c1.019,0.301,2.038,0.601,3.057,0.902
			c0.017-0.05,0.05-0.1,0.067-0.15c-1.487-0.835-2.456-2.155-3.408-3.475c-0.835-1.136-1.804-2.022-3.191-2.523
			c-0.952-0.334-1.854-0.919-2.122-2.072c-0.067-0.267-0.184-0.535-0.351-0.735c-1.203-1.47-2.64-2.673-4.394-3.458
			c-0.835-0.384-1.738-0.501-2.556-0.986c-1.136-0.668-2.439-1.069-3.542-1.788c-1.47-0.936-3.057-1.337-4.728-1.454
			c-2.991-0.234-5.881,0.267-8.654,1.353c-2.439,0.952-4.945,1.537-7.535,1.838c-2.289,0.267-4.594,0.384-6.9,0.585
			c-2.105,0.184-4.16,0.535-6.048,1.537c-0.635,0.334-1.303,0.384-1.988,0.15c-0.835-0.284-1.654-0.635-2.506-0.869
			c-1.737-0.468-3.458-0.885-5.296-0.535c-1.086,0.217-2.122-0.234-2.94-1.036c-0.518-0.518-0.735-1.136-0.551-1.871
			c0.418-1.654,2.456-3.057,4.127-2.79c1.487,0.234,2.656,1.086,3.776,2.005c0.1,0.084,0.134,0.217,0.184,0.334
			c0.434,0.919,1.504,1.47,2.606,1.337c0-0.451,0.017-0.919,0-1.37c-0.033-0.518-0.317-0.869-0.835-0.869
			c-0.819,0-1.353-0.451-1.888-0.986c-0.869-0.852-1.804-1.604-3.007-1.921c-2.339-0.635-5.747,0.969-6.783,3.174
			c-0.501,1.069-0.501,2.172,0.067,3.208c0.819,1.52,2.139,2.289,3.843,2.306c1.086,0.017,2.189-0.1,3.275-0.117
			c1.186-0.017,2.189,0.384,3.041,1.236c0.585,0.601,1.153,1.32,2.272,1.22c-0.217,0.284-0.351,0.451-0.484,0.635
			c-0.668,0.902-1.387,1.771-1.988,2.723c-1.337,2.072-2.255,4.344-2.807,6.716c-0.284,1.22-0.301,2.506-0.468,3.776
			c-0.067,0.535-0.084,1.136-0.368,1.57c-0.484,0.769-1.169,1.403-1.721,2.139c-0.267,0.351-0.501,0.769-0.601,1.203
			c-0.184,0.735-0.317,1.454-0.869,2.055c-0.484,0.551-0.785,1.186-0.769,2.005c0,0.418-0.351,0.969-0.702,1.22
			c-0.568,0.401-1.153,0.668-1.27,1.487c-0.1,0.718-0.451,1.387-0.618,2.105c-0.067,0.267-0.033,0.618,0.1,0.852
			c0.501,0.885,0.769,1.938,2.189,1.988c0.618,0.017,0.835-0.1,1.002-0.551c0.351-0.885,0.785-1.721,0.735-2.757
			c-0.05-0.852,0.184-1.704,0.301-2.573c0.017-0.117,0.05-0.267,0.134-0.351c0.685-0.752,0.869-1.687,1.053-2.623
			c0.15-0.802,0.468-1.57,1.103-2.038c0.368-0.267,0.952-0.267,1.453-0.351c0.969-0.15,1.938-0.368,2.69-1.053
			c1.286-1.186,2.907-1.721,4.427-2.456c0.434,0.601,1.053,1.136,1.169,1.754c0.217,1.036,0.317,2.155-0.234,3.174
			c-0.401,0.752-0.267,1.454,0.384,1.687c0.885,0.317,1.27,1.002,1.554,1.804c0.217,0.585,0.551,1.069,1.119,1.303
			c0.518,0.217,0.518,0.535,0.434,0.969c-0.267,1.387,0.017,2.623,1.119,3.542c1.086,0.885,2.372,0.735,3.642,0.535
			c0.518-0.084,0.568-0.451,0.334-0.835c-0.384-0.618-0.819-1.22-1.236-1.821c-0.418-0.585-0.835-1.169-1.253-1.754
			c-0.234-0.334-0.401-0.718-0.702-0.969c-1.27-1.119-2.072-2.539-2.773-4.077c0.234-0.184,0.418-0.351,0.635-0.484
			c1.437-0.869,2.439-2.122,3.191-3.592c0.067-0.134,0.184-0.267,0.301-0.368C723.606,400.385,724.291,399.733,725.059,399.015z"/>
		<g>
			<path style="fill:#FFFFFF;" d="M812.605,412.397c0.184-0.301,0.317-0.635,0.468-0.952c0.201-0.384,0.251-0.885,0.852-0.952
				c-0.033-0.635,0.084-1.253,0.535-1.704c0.535-0.551,0.618-1.22,0.601-1.921c-0.017-0.384,0.484-0.785,0.819-0.652
				c0.117,0.05,0.167,0.284,0.251,0.468c0.535,0.117,0.835,0.434,0.885,0.969c0.618-0.033,0.685,0.501,0.919,0.902
				c0.251,0.434,0.484,0.869,0.718,1.286c0.1,0.184,0.234,0.368,0.351,0.551c0.033,0.05,0.083,0.134,0.134,0.134
				c0.518,0.084,0.585,0.568,0.802,0.936c0.284,0.501,0.601,1.002,0.885,1.52c0.084,0.15,0.15,0.317,0.234,0.501
				c0.501,0,0.568,0.484,0.769,0.835c0.201,0.351,0.368,0.718,0.518,1.103c0.084,0.184,0.15,0.401,0.134,0.601
				c0,0.317-0.083,0.618-0.368,0.585c-0.284,0.368-0.484,0.668-0.752,0.919c-0.551,0.551-0.501,1.253,0.15,1.671
				c0.201,0.134,0.401,0.167,0.618,0.05c0.284-0.15,0.568-0.284,0.819-0.451c0.401-0.267,0.835-0.384,1.32-0.351
				c0.752,0.067,1.236-0.418,1.771-0.835c0.15-0.117,0.317-0.234,0.551-0.401c0.1-0.418,0.635-0.785,1.303-0.802
				c0.735-0.017,1.453-0.033,2.189,0c0.468,0.017,0.885-0.117,1.27-0.368c0.568-0.384,1.169-0.601,1.888-0.535
				c0.401,0.033,0.819,0.033,1.22-0.05c0.668-0.134,1.002-0.601,1.002-1.27c0-1.37,0-2.723,0-4.093
				c-0.017-1.286-0.033-2.573-0.067-3.859c-0.017-0.518,0.201-0.952,0.501-1.337c0.067-0.1,0.251-0.117,0.317-0.2
				c0.134-0.15,0.284-0.418,0.401-0.401c0.301,0.033,0.635,0.05,0.785,0.451c0.184,0.468,0.468,0.902,0.685,1.37
				c0.117,0.251,0.251,0.518,0.251,0.769c0,0.702,0.1,1.353,0.551,1.921c0.234,0.317,0.317,0.735,0.535,1.086
				c0.251,0.401,0.568,0.769,0.852,1.153c0.1,0.134,0.15,0.284,0.234,0.468c0.501,0,0.568,0.485,0.752,0.835
				c0.267,0.485,0.501,1.002,0.702,1.52c0.134,0.351,0.251,0.718,0.301,1.086c0.05,0.384,0,0.769,0.017,1.153
				c0.033,0.518-0.201,0.919-0.484,1.303c-0.067,0.1-0.234,0.117-0.384,0.184c-0.067,0.418-0.585,0.969-1.019,0.936
				c-0.251,1.169,0.351,1.754,1.086,1.821c0.585,0.05,1.169,0,1.754,0c0.351,0,0.735,0.033,1.069-0.067
				c0.384-0.117,0.735-0.334,1.069-0.551c0.401-0.267,0.835-0.368,1.303-0.418c0.117-0.017,0.217-0.167,0.317-0.234
				c0.284-0.201,0.568-0.468,0.885-0.585c0.768-0.267,1.119-0.685,1.119-1.504c0-0.384,0.017-0.769,0-1.153
				c-0.017-0.368-0.067-0.735-0.1-1.103c-0.468-0.117-0.902-0.718-0.902-1.303c0-1.236,0.017-2.489,0.067-3.726
				c0.017-0.234,0.15-0.518,0.301-0.702c0.568-0.752,0.618-1.604,0.618-2.473c0-3.692,0.017-7.368,0.017-11.06
				c0-0.986,0.033-1.988-0.084-2.974c-0.05-0.501-0.401-0.952-0.585-1.437c-0.134-0.351-0.301-0.718-0.284-1.086
				c0.033-0.752-0.401-1.286-0.768-1.854c-0.117-0.167-0.217-0.351-0.384-0.618c-0.384-0.1-0.735-0.401-0.835-0.969
				c-0.484-0.05-0.819-0.317-0.986-0.802c-0.017-0.017-0.017-0.067-0.033-0.067c-1.053-0.368-1.537-1.504-2.539-1.938
				c-0.317-0.134-0.652-0.284-0.936-0.468c-0.184-0.117-0.301-0.334-0.418-0.535c-0.217-0.134-0.418-0.284-0.635-0.418
				c-0.384-0.234-0.768-0.451-1.153-0.668c-0.418-0.234-0.835-0.485-1.27-0.668c-0.351-0.15-0.735-0.334-1.119-0.317
				c-0.685,0.017-1.203-0.251-1.738-0.618c-0.251-0.167-0.585-0.301-0.885-0.301c-2.907-0.033-5.797-0.017-8.704-0.017
				c-0.484,0-0.952-0.017-1.437,0.033c-0.317,0.033-0.702,0.067-0.936,0.251c-0.819,0.635-1.754,0.685-2.723,0.685
				c-1.921,0-3.843-0.033-5.764,0c-0.668,0.017-1.253-0.15-1.771-0.535c-0.451-0.317-0.919-0.501-1.487-0.451
				c-0.535,0.05-0.969-0.251-1.387-0.518c-0.451-0.301-0.902-0.451-1.454-0.418c-0.451,0.033-0.902,0.033-1.353-0.017
				c-0.819-0.084-1.52,0.167-2.172,0.652c-0.184,0.134-0.418,0.217-0.635,0.267c-0.518,0.15-0.852,0.484-1.069,0.969
				c-0.117,0.284-0.267,0.568-0.451,0.819c-0.084,0.117-0.284,0.15-0.468,0.234c0,0.535-0.501,0.635-0.885,0.852
				c-0.334,0.184-0.652,0.384-1.002,0.535c-0.184,0.084-0.401,0.134-0.601,0.134c-0.384,0.017-0.752,0-1.203,0
				c-0.234,0.334-0.668,0.167-0.969,0.05c-0.652-0.251-1.337-0.251-2.005-0.334c-0.668-0.084-1.671-1.036-1.771-1.704
				c-0.017-0.134,0.067-0.267,0.117-0.418c-0.184-0.15-0.384-0.384-0.618-0.501c-0.468-0.234-1.119-0.05-1.454,0.368
				c-0.267,0.351-0.568,0.702-0.802,1.086c-0.267,0.434-0.685,0.618-1.119,0.735c-0.15,0.033-0.317-0.05-0.501-0.084
				c-0.434,0.618-1.053,0.969-1.788,1.169c-0.15,0.033-0.301,0.167-0.434,0.251c-0.501,0.284-1.019,0.535-1.504,0.835
				c-0.301,0.184-0.652,0.384-0.852,0.652c-0.819,1.036-1.57,2.122-2.356,3.174c-0.267,0.351-0.535,0.685-0.819,1.019
				c-0.334,0.418-1.019,0.652-1.487,0.484c-0.501,0.668-1.036,1.353-1.47,1.921c0.15,0.485,0.267,0.835,0.334,1.203
				c0.083,0.468,0.05,0.969,0.201,1.42c0.117,0.351,0.351,0.702,0.618,0.969c0.284,0.284,0.668,0.484,0.986,0.735
				c0.501,0.401,1.053,0.468,1.57,0.117c0.769-0.501,1.454-0.401,2.155,0.1c0.017,0,0.017,0,0.067,0.017
				c0.351-0.401,0.785-0.1,1.203-0.084c0.05,0,0.15,0.284,0.1,0.384c-0.217,0.418-0.468,0.835-0.735,1.203
				c-0.251,0.334-0.551,0.635-0.852,0.969c0.351,0.184,0.768,0.418,1.22,0.601c0.15,0.05,0.401-0.017,0.551-0.117
				c0.685-0.451,1.353-0.919,2.005-1.42c0.618-0.468,1.203-0.952,1.771-1.47c0.267-0.234,0.535-0.251,0.835-0.2
				c0.585,0.117,1.153,0.284,1.754,0.334c0.468,0.05,0.768,0.334,1.103,0.585c0.117,0.084,0.234,0.2,0.351,0.284
				c0.468,0.301,0.919,0.618,1.403,0.852c0.551,0.251,1.136,0.434,1.704,0.618c0.702,0.217,1.47,0.267,2.088,0.601
				c0.635,0.334,1.236,0.351,1.888,0.351c0.418,0,0.819-0.033,1.236-0.033c0.384-0.017,0.952,0.585,0.969,1.002
				c0,0.802,0.033,1.621,0,2.423c-0.017,0.501,0.184,0.885,0.418,1.286c0.535,0.936,1.019,1.888,1.487,2.84
				c0.084,0.15,0.017,0.418-0.05,0.601c-0.117,0.301-0.301,0.585-0.468,0.869c-0.217,0.368-0.401,0.735-0.368,1.186
				c0.05,0.484-0.083,0.902-0.384,1.286c-0.568,0.685-0.685,1.47-0.652,2.322c0.017,0.551-0.017,1.103-0.033,1.671
				c-0.017,0.468-0.317,0.785-0.702,0.986c-0.535,0.284-1.086,0.518-1.621,0.819c-0.568,0.317-1.203,0.117-1.788,0.217
				c-0.201,0.033-0.401,0.017-0.601,0c-0.685-0.033-1.069,0.434-1.437,0.902c-0.217,0.284,0.067,0.885,0.401,1.019
				c0.317,0.134,0.685,0.251,0.936,0.468c0.384,0.351,0.802,0.434,1.27,0.434c1.938,0.017,3.876,0,5.797,0.05
				c0.735,0.017,1.286-0.301,1.804-0.752c0.134-0.134,0.317-0.2,0.484-0.301c0.05-0.033,0.117-0.05,0.134-0.084
				c0.284-0.735,1.002-1.22,1.169-2.055c0.067-0.334,0.284-0.835,0.735-0.785c0.251-0.351,0.468-0.635,0.652-0.936
				c0.184-0.301,0.351-0.618,0.501-0.919c0.15-0.284,0.251-0.568,0.434-0.835c0.084-0.117,0.267-0.15,0.418-0.234
				c-0.017-0.017-0.033-0.017-0.05-0.033C812.17,413.066,812.404,412.748,812.605,412.397z"/>
		</g>
	</g>
</g>
</svg>
