<?xml version="1.0" encoding="iso-8859-1"?>
<!-- Generator: Adobe Illustrator 19.0.0, SVG Export Plug-In . SVG Version: 6.00 Build 0)  -->
<svg version="1.1" id="Layer_1" xmlns="http://www.w3.org/2000/svg" xmlns:xlink="http://www.w3.org/1999/xlink" x="0px" y="0px"
	 viewBox="699 321 150 150" style="enable-background:new 699 321 150 150;" xml:space="preserve">
<g>
	<g>
		<path style="fill:#FFFFFF;" d="M799.623,365.37c-1.555-0.307-2.911-0.054-4.176,0.777c-0.289,0.199-0.669,0.289-1.03,0.38
			c-1.193,0.307-2.531,0.343-3.236,1.609c-0.452,0.795-1.121,0.904-1.989,0.814c-1.193-0.108-2.422-0.018-3.634,0
			c-0.434,0-0.868,0.072-1.302,0.036c-0.705-0.054-1.049,0.181-0.994,0.886c0.036,0.524-0.09,0.976-0.38,1.392
			c-0.181,0.253-0.325,0.56-0.47,0.832c-0.307,0.578-0.271,1.103,0.235,1.573c0.343,0.325,0.669,0.669,1.03,1.03
			c0.072-0.072,0.217-0.217,0.398-0.38c0.127,0.235,0.199,0.398,0.253,0.47c1.41-0.524,2.513,0.325,3.67,0.687
			c0.759,0.235,1.175,0.886,1.32,1.699c-1.464,0.506-2.929,0.886-3.706,2.296c-0.163,0.018-0.307,0.018-0.434,0.072
			c-0.307,0.108-0.615,0.235-0.922,0.344c-0.506,0.163-0.669,0.506-0.307,0.904c0.398,0.434,0.886,0.741,1.338,1.121
			c0.036-0.036,0.072-0.072,0.127-0.108c-0.018-0.108-0.036-0.199-0.036-0.253c0.235-0.018,0.47-0.072,0.705-0.072
			c0.452,0,0.958-0.127,1.338,0.054c1.049,0.452,2.079,0.434,3.2,0.325c1.012-0.09,2.043,0.163,2.965,0.777
			c0.687,0.452,1.374,1.03,2.278,0.976c-0.109,0.651-0.235,1.265-0.344,1.88c0.145,0.054,0.307,0.127,0.542,0.217
			c-0.217,0.108-0.362,0.145-0.452,0.235c-0.307,0.253-0.904,0.615-0.85,0.777c0.199,0.578-0.362,0.597-0.506,0.886
			c-0.127,0.235-0.362,0.416-0.524,0.651c-0.307,0.452-0.705,0.777-1.229,0.976c-0.868,0.325-1.717,0.741-2.585,1.103
			c-1.049,0.452-2.115,0.904-3.164,1.356c-1.5,0.651-3.091,1.193-3.959,2.73c-0.434,0.777-1.103,1.229-1.735,1.754
			c-0.868,0.687-1.808,1.302-2.242,2.422c-0.09,0.235-0.434,0.398-0.687,0.579c-0.289,0.217-0.651,0.38-0.868,0.633
			c-0.271,0.307-0.47,0.705-0.615,1.085c-0.163,0.398-0.217,0.832-0.325,1.247c0.054,0.018,0.108,0.036,0.163,0.054
			c0.163-0.253,0.325-0.506,0.506-0.795c0.127,0.524,0.217,0.94,0.325,1.338c0.036-0.018,0.09-0.018,0.127-0.036
			c0.018-0.253,0.036-0.488,0.072-0.741c0.054-0.018,0.127-0.054,0.181-0.072c0.325,0.434,0.651,0.85,1.067,1.374
			c-0.09-0.416-0.163-0.723-0.217-0.976c0.343-0.09,0.597-0.181,0.868-0.235c0.741-0.127,1.446-0.307,1.934-0.922
			c0.253-0.325,0.56-0.344,0.904-0.253c0.235,0.054,0.47,0.127,0.687,0.199c1.211,0.398,2.404,0.416,3.453-0.416
			c0.705-0.542,1.338-1.157,2.079-1.79c0.687,0.47,1.627,0.832,2.585,0.633c1.067-0.217,1.898,0.289,2.838,0.56
			c-0.253,0.38-0.398,0.814-0.705,1.012c-1.03,0.651-2.097,1.302-3.218,1.808c-0.994,0.452-1.175,1.41-1.663,2.187
			c-0.127,0.199-0.018,0.56-0.018,0.94c0.217-0.362,0.362-0.615,0.506-0.886c0.163,0.542,0.289,1.012,0.416,1.5
			c0.054-0.018,0.09-0.018,0.145-0.036c-0.036-0.217-0.054-0.434-0.127-0.814c0.253,0.38,0.398,0.615,0.597,0.904
			c0.018-0.253,0.036-0.416,0.072-0.615c0.235,0.307,0.434,0.56,0.723,0.94c-0.09-0.434-0.145-0.705-0.199-1.067
			c0.578-0.09,1.085-0.127,1.591-0.235c0.289-0.072,0.56-0.235,0.85-0.362c0.253-0.108,0.47-0.307,0.723-0.343
			c1.193-0.235,2.459-0.307,3.164-1.139c0.687,0.072,1.193,0.127,1.699,0.163c0.253,0.018,0.524,0,0.777,0.072
			c0.795,0.235,1.464-0.343,2.206-0.307c0.054,0,0.145-0.036,0.163-0.072c0.036-0.434,0.344-0.289,0.578-0.253
			c0.289,0.036,0.597,0.09,0.904,0.072c0.633-0.018,1.265-0.072,1.844-0.127c0.271,0.452,0.506,0.85,0.814,1.374
			c0.018-0.398,0.036-0.633,0.054-0.85c0.054-0.018,0.109-0.054,0.163-0.072c0.759,1.247,1.736,2.565,2.495,3.831
			c0.036-0.072,0.072-0.163,0.054-0.127c0.85,0.795,1.518,1.538,2.313,2.298c-0.434,0.47-0.904,0.976-1.446,1.573
			c0.307,0.036,0.398,0.036,0.47,0.036c-0.416,0.506-0.813,0.994-1.247,1.519c0.181,0.054,0.289,0.072,0.253,0.072
			c-0.289,1.591-1.5,2.603-2.224,3.923c0.108-0.054,0.217-0.108,0.362-0.181c-0.127,0.416-0.235,0.777-0.362,1.121
			c-0.271,0.723-0.09,1.374,0.253,2.007c0.759,1.446,1.555,2.892,2.296,4.357c0.38,0.759-0.398,2.26-1.229,2.459
			c-0.488,0.127-0.976,0.344-1.482,0.398c-0.94,0.09-1.247,0.723-1.5,1.464c-0.018,0.054,0.018,0.108,0.018,0.181
			c0.145-0.072,0.289-0.127,0.47-0.199c-0.036,0.181-0.054,0.325-0.072,0.488c0.217-0.054,0.398-0.09,0.578-0.145
			c0,0.217,0,0.398,0,0.615c0.235-0.145,0.416-0.253,0.687-0.416c0.018,0.289,0.036,0.488,0.036,0.597c0.434,0,0.832,0.018,1.247,0
			c0.542-0.036,1.247,0.108,1.609-0.181c0.669-0.542,1.356-0.434,2.079-0.506c0.452-0.054,1.049-0.145,1.284-0.452
			c0.398-0.506,0.687-1.175,0.813-1.808c0.127-0.633,0.018-1.302,0.018-1.971c0-0.217-0.054-0.506,0.054-0.633
			c0.253-0.289,0.145-0.542,0.072-0.814c-0.054-0.199-0.127-0.398-0.181-0.597c0.036-0.036,0.09-0.072,0.127-0.108
			c0.108,0.181,0.217,0.38,0.398,0.705c0.036-0.434,0.054-0.651,0.072-0.922c0.145,0.072,0.217,0.127,0.416,0.235
			c-0.145-0.416-0.253-0.723-0.362-1.012c0.868,0.325,1.735,0.669,2.585,0.994c0.018-0.217-0.054-0.271-0.108-0.362
			c-0.054-0.09-0.09-0.181-0.181-0.362c0.886,0,1.681,0,2.603,0c-0.235-0.145-0.38-0.235-0.578-0.343
			c1.03-0.163,1.88-0.344,2.748-0.434c0.235-0.036,0.542,0.072,0.723,0.217c0.832,0.669,1.645,1.374,2.495,2.079
			c0.072-0.163,0.108-0.253,0.09-0.199c1.067,0.253,2.079,0.506,3.146,0.777c-0.036-0.199-0.072-0.362-0.108-0.506
			c0.506-0.054,0.868,0.795,1.356,0.199c0.506,0.47,1.03,0.94,1.627,1.482c0.018-0.307,0.018-0.47,0.036-0.759
			c0.452,0.542,0.832,0.994,1.284,1.537c0.127-0.362,0.163-0.452,0.253-0.669c0.253,0.289,0.416,0.542,0.633,0.759
			c0.832,0.795,1.482,1.826,2.639,2.278c0.343,0.127,0.633,0.398,0.958,0.56c0.235,0.127,0.506,0.289,0.759,0.289
			c0.705,0,1.428-0.072,2.133-0.09c0.072,0,0.145,0.072,0.253,0.127c-1.374,0.705-2.603,1.627-1.79,2.585
			c0.145-0.108,0.289-0.235,0.452-0.362c0.127,0.271,0.217,0.506,0.325,0.723c0.163-0.181,0.271-0.307,0.398-0.452
			c0.127,0.271,0.235,0.488,0.307,0.651c0.94-0.723,1.265,0.181,1.735,0.615c0.09-0.217,0.163-0.362,0.217-0.506
			c0.687,0.289,0.94,0.307,1.573-0.054c0.886-0.506,1.826-0.741,2.82-0.868c0.615-0.072,1.302-0.325,1.79-0.723
			c1.157-0.94,1.265-2.82,0.325-3.995c-0.271-0.343-0.687-0.651-0.832-1.049c-0.416-1.139-1.067-2.043-2.169-2.585
			c-0.108-0.054-0.253-0.09-0.307-0.181c-0.325-0.705-1.067-0.832-1.645-1.157c-0.38-0.217-0.94-0.09-1.41-0.108
			c-0.307-1.03-0.597-2.043-0.886-3.055c-0.072-0.271-0.036-0.597-0.181-0.814c-0.488-0.795-1.049-1.537-1.555-2.332
			c-0.127-0.199-0.253-0.651-0.145-0.723c0.452-0.398,0.072-0.723-0.09-0.958c-0.506-0.687-1.121-1.284-1.663-1.952
			c-0.253-0.289-0.578-0.633-0.597-0.976c-0.02-0.403,0.078-2.009,0.19-3.335c0.089-1.053,0.009-4.601-0.118-5.921
			c0.072,0,0.127-0.018,0.199-0.018c0.145,0.181,0.271,0.38,0.416,0.56c0.054-0.018,0.108-0.036,0.145-0.054
			c-0.307-1.157-0.615-2.332-0.94-3.471c-0.181-0.615-0.669-1.085-0.524-1.88c0.09-0.452-0.325-1.103-0.705-1.519
			c-0.542-0.615-1.211-1.103-1.844-1.609c-1.32-1.085-2.694-2.115-3.724-3.507c-0.795-1.067-1.699-2.061-2.585-3.073
			c-0.542-0.597-1.157-1.139-1.699-1.736c-1.012-1.121-2.025-2.242-3.019-3.381c-0.343-0.38-0.651-0.795-0.976-1.193
			c0.036-0.036,0.072-0.054,0.108-0.09c0.163,0.145,0.307,0.271,0.47,0.416c0.036-0.018,0.054-0.036,0.09-0.054
			c-0.506-1.085-1.03-2.169-1.537-3.254c0.108,0.054,0.235,0.108,0.434,0.199c-0.307-0.434-0.524-0.795-0.795-1.103
			c-1.392-1.5-3.055-2.639-4.953-3.344c-1.645-0.615-3.344-1.085-5.026-1.591c-0.488-0.145-1.049-0.09-1.482-0.325
			c-1.012-0.524-2.169-0.759-3.001-1.681c-0.416-0.47-1.121-0.651-1.735-0.976c0.072-0.072,0.145-0.163,0.235-0.253
			c-0.163-0.054-0.307-0.108-0.597-0.217c0.307-0.036,0.47-0.054,0.633-0.072c-0.253-0.199-0.506-0.343-0.795-0.416
			c-0.633-0.145-1.302-0.217-1.916-0.398c-0.651-0.199-1.284-0.506-1.971-0.795C799.352,366.382,799.478,365.894,799.623,365.37z
			 M726.28,413.44c1.121,0.687,2.531,1.175,3.977,1.5c0.127,0.018,0.253,0.307,0.253,0.488c0.036,0.633-0.072,1.302,0.054,1.916
			c0.145,0.759-0.054,1.41-0.289,2.079c-0.036,0.108-0.09,0.235-0.09,0.343c-0.09,0.922-0.145,1.844-0.253,2.766
			c-0.09,0.687-0.181,1.41-0.759,1.88c-0.759,0.633-1.5,1.284-1.934,2.187c-0.108,0.235-0.127,0.795-0.036,0.832
			c0.398,0.163,0.307,0.434,0.325,0.723c0.018,0.271,0.036,0.56,0.145,0.814c0.578,1.591,2.73,3.055,4.447,2.983
			c0.38-0.018,1.067,0,1.067-0.615c0-0.832-0.163-1.645-0.723-2.35c-0.416-0.524-0.814-1.121-1.03-1.736
			c-0.615-1.717-0.199-3.236,1.157-4.429c0.94-0.832,1.844-1.663,2.459-2.82c0.271-0.506,0.85-0.832,1.32-1.211
			c0.072-0.054,0.289,0.036,0.416,0.127c0.542,0.362,1.03,0.85,1.627,1.085c1.916,0.795,3.905,0.705,5.46-0.651
			c0.922-0.795,1.663-0.976,2.694-0.578c0.181,0.072,0.416,0.199,0.488,0.362c0.398,0.832,1.049,1.32,1.88,1.627
			c0.398,0.145,0.904,0.235,1.175,0.524c0.506,0.56,0.868,1.247,1.32,1.898c-0.307,0.253-0.597,0.398-0.759,0.633
			c-0.434,0.651-1.012,1.284-1.157,2.007c-0.235,1.211,0.09,2.404,0.669,3.507c0.398,0.759,1.067,0.94,1.844,0.85
			c0.56-0.072,0.524-0.633,0.687-1.012c0.163-0.398,0.163-0.958,0.452-1.211c0.398-0.362,0.362-0.741,0.416-1.175
			c0.036-0.362,0.108-0.777,0.307-1.049c0.85-1.139,0.868-2.459-0.036-3.489c-0.47-0.542-1.049-0.976-1.482-1.555
			c-0.325-0.434-0.633-0.994-0.687-1.519c-0.09-1.012-0.307-1.971-0.832-2.838c-0.145-0.235-0.289-0.47-0.434-0.705
			c1.284-1.03,1.898-2.676,3.471-3.308c0.235,0.145,0.488,0.307,0.759,0.416c0.47,0.181,0.814,0.452,0.976,0.958
			c0.307,0.904,0.904,1.645,1.79,2.007c0.958,0.398,1.5,1.284,2.368,1.808c0.741,0.434,1.41,0.904,2.314,0.47
			c0.09-0.054,0.235-0.018,0.344,0c0.94,0.181,1.519-0.271,1.609-1.229c0.018-0.145,0.054-0.325,0.127-0.452
			c0.687-1.193,1.284-2.404,1.482-3.814c0.108-0.759,0.886-1.175,1.609-0.976c0.922,0.253,1.555-0.108,1.699-1.049
			c0.072-0.47,0.018-0.958,0.018-1.464c0.452,0.398,0.886,0.814,1.374,1.193c1.085,0.868,2.097,1.844,3.453,2.332
			c0.994,0.362,1.952,0.362,2.929-0.307c-1.157-0.108-2.079-0.542-2.784-1.302c-0.741-0.814-1.392-1.754-2.079-2.621
			c-0.56-0.705-1.157-1.392-1.699-2.061c1.103,0.325,2.206,0.651,3.308,0.976c0.018-0.054,0.054-0.108,0.072-0.163
			c-1.609-0.904-2.657-2.332-3.688-3.76c-0.904-1.229-1.952-2.187-3.453-2.73c-1.03-0.362-2.007-0.994-2.296-2.242
			c-0.072-0.289-0.199-0.578-0.38-0.795c-1.302-1.591-2.856-2.892-4.755-3.742c-0.904-0.416-1.88-0.542-2.766-1.067
			c-1.229-0.723-2.639-1.157-3.833-1.934c-1.591-1.012-3.308-1.446-5.116-1.573c-3.236-0.253-6.363,0.289-9.364,1.464
			c-2.639,1.03-5.351,1.663-8.153,1.989c-2.477,0.289-4.971,0.416-7.466,0.633c-2.278,0.199-4.501,0.579-6.544,1.663
			c-0.687,0.362-1.41,0.416-2.151,0.163c-0.904-0.307-1.79-0.687-2.712-0.94c-1.88-0.506-3.742-0.958-5.731-0.578
			c-1.175,0.235-2.296-0.253-3.182-1.121c-0.56-0.56-0.795-1.229-0.597-2.025c0.452-1.79,2.657-3.308,4.465-3.019
			c1.609,0.253,2.874,1.175,4.086,2.169c0.108,0.09,0.145,0.235,0.199,0.362c0.47,0.994,1.627,1.591,2.82,1.446
			c0-0.488,0.018-0.994,0-1.482c-0.036-0.56-0.343-0.94-0.904-0.94c-0.886,0-1.464-0.488-2.043-1.067
			c-0.94-0.922-1.952-1.735-3.254-2.079c-2.531-0.687-6.219,1.049-7.34,3.435c-0.542,1.157-0.542,2.35,0.072,3.471
			c0.886,1.645,2.314,2.477,4.158,2.495c1.175,0.018,2.368-0.108,3.543-0.127c1.284-0.018,2.368,0.416,3.29,1.338
			c0.633,0.651,1.247,1.428,2.459,1.32c-0.235,0.307-0.38,0.488-0.524,0.687c-0.723,0.976-1.5,1.916-2.151,2.947
			c-1.446,2.242-2.441,4.7-3.037,7.267c-0.307,1.32-0.325,2.712-0.506,4.086c-0.072,0.578-0.09,1.229-0.398,1.699
			c-0.524,0.832-1.265,1.519-1.862,2.314c-0.289,0.38-0.542,0.832-0.651,1.302c-0.199,0.795-0.344,1.573-0.94,2.224
			c-0.524,0.597-0.85,1.284-0.832,2.169c0,0.452-0.38,1.049-0.759,1.32c-0.615,0.434-1.247,0.723-1.374,1.609
			c-0.108,0.777-0.488,1.5-0.669,2.278c-0.072,0.289-0.036,0.669,0.108,0.922c0.542,0.958,0.832,2.097,2.368,2.151
			c0.669,0.018,0.904-0.108,1.085-0.597c0.38-0.958,0.85-1.862,0.795-2.983c-0.054-0.922,0.199-1.844,0.325-2.784
			c0.018-0.127,0.054-0.289,0.145-0.38c0.741-0.814,0.94-1.826,1.139-2.838c0.163-0.868,0.506-1.699,1.193-2.206
			c0.398-0.289,1.03-0.289,1.573-0.38c1.049-0.163,2.097-0.398,2.911-1.139c1.392-1.284,3.146-1.862,4.791-2.657
			c0.47,0.651,1.139,1.229,1.265,1.898c0.235,1.121,0.344,2.332-0.253,3.435c-0.434,0.814-0.289,1.573,0.416,1.826
			c0.958,0.343,1.374,1.085,1.681,1.952c0.235,0.633,0.597,1.157,1.211,1.41c0.56,0.235,0.56,0.578,0.47,1.049
			c-0.289,1.5,0.018,2.838,1.211,3.833c1.175,0.958,2.567,0.795,3.941,0.578c0.56-0.09,0.615-0.488,0.362-0.904
			c-0.416-0.669-0.886-1.32-1.338-1.971c-0.452-0.633-0.904-1.265-1.356-1.898c-0.253-0.362-0.434-0.777-0.759-1.049
			c-1.374-1.211-2.242-2.748-3.001-4.411c0.253-0.199,0.452-0.38,0.687-0.524c1.555-0.94,2.639-2.296,3.453-3.887
			c0.072-0.145,0.199-0.289,0.325-0.398C724.707,414.922,725.449,414.217,726.28,413.44z"/>
	</g>
</g>
</svg>
