<?xml version="1.0" encoding="utf-8"?>
<!-- Generator: Adobe Illustrator 19.0.0, SVG Export Plug-In . SVG Version: 6.00 Build 0)  -->
<svg version="1.1" id="Layer_1" xmlns="http://www.w3.org/2000/svg" xmlns:xlink="http://www.w3.org/1999/xlink" x="0px" y="0px"
	 width="51px" height="51px" viewBox="-9 0 51 51" style="enable-background:new -9 0 51 51;" xml:space="preserve">
<style type="text/css">
	.st0{opacity:0.4;enable-background:new    ;}
	.st1{enable-background:new    ;}
	.st2{fill:#41A2D0;}
</style>
<g id="Shape_1_1_" class="st0">
	<g id="Shape_1">
		<g>
			<path d="M5.5,25.5c-0.5,0-0.8,0.3-0.8,0.8s0.3,0.8,0.8,0.8h6c0,0.3,0,0.6,0,0.8c0,0.9,0.1,1.7,0.3,2.5H5.5
				c-0.5,0-0.8,0.3-0.8,0.8S5,32,5.5,32h7c1.5,3,4.7,5.1,8.3,5.1c5.2,0,9.4-4.2,9.4-9.4s-4.2-9.3-9.4-9.3c-2,0-3.9,0.6-5.4,1.7H5.5
				c-0.5,0-0.8,0.3-0.8,0.8s0.3,0.8,0.8,0.8h8.1c-0.8,1-1.4,2.1-1.8,3.4H5.5V25.5z M13.2,26.6c0-0.1,0-0.1,0-0.2
				c0.4-1.8,1.4-3.4,2.8-4.5c0.1,0,0.1-0.1,0.2-0.1c1.3-0.9,2.8-1.4,4.5-1.4c4.3,0,7.6,3.4,7.6,7.6c0,4.3-3.4,7.7-7.6,7.7
				c-4.3,0-7.7-3.4-7.7-7.7C13.1,27.6,13.1,27.1,13.2,26.6z M19.3,32.9c0.2,0.2,0.3,0.3,0.6,0.3c0.3,0,0.6-0.2,0.7-0.4l5.1-7.6
				c0.3-0.4,0.2-0.9-0.3-1.2s-0.9-0.2-1.2,0.3l-4.5,6.8l-2.6-2.6c-0.3-0.3-0.8-0.3-1.2,0c-0.3,0.3-0.3,0.8,0,1.2L19.3,32.9z M36.9,0
				H3.8C1.4,0-0.5,1.9-0.5,4.3v34.8h-6c-1.4,0-2.5,1.1-2.5,2.6v4.2c0,2.8,2.3,5.1,5.1,5.1h31.8h0.5c1.3,0,2.5-0.5,3.4-1.4
				c1.1-0.9,1.7-2.3,1.7-3.7v-34h5.9c1.4,0,2.5-1.1,2.5-2.5V5.1C42,2.3,39.7,0,36.9,0z M-3.9,49.3c-1.9,0-3.4-1.5-3.4-3.4v-4.3
				c0-0.4,0.3-0.8,0.8-0.8h6.8h23v4.9v0.2c0,1.3,0.4,2.5,1.3,3.4C24.6,49.3-3.9,49.3-3.9,49.3z M32.6,2.3c-0.5,0.7-0.8,1.6-0.8,2.5
				c0,0.1,0,0.2,0,0.2v40.8c0,1-0.4,1.9-1.1,2.5c-0.6,0.5-1.4,0.8-2.2,0.9h-0.1c-0.6,0-1.1-0.1-1.6-0.4C25.7,48.2,25,47,25,45.6V40
				c0-0.5-0.3-0.8-0.8-0.8h-23V4.3c0-1.4,1.1-2.6,2.5-2.6H33C32.9,1.9,32.8,2.1,32.6,2.3z M40.3,9.4c0,0.4-0.3,0.8-0.8,0.8h-5.9V5.1
				c0-1.9,1.5-3.4,3.4-3.4s3.4,1.5,3.4,3.4v4.3H40.3z M11.4,6.8h10.2c0.5,0,0.8-0.3,0.8-0.8s-0.3-0.9-0.8-0.9H11.4
				c-0.5,0-0.8,0.3-0.8,0.8S10.9,6.8,11.4,6.8z M5.5,11.9h22.1c0.5,0,0.8-0.3,0.8-0.8s-0.3-0.8-0.8-0.8H5.5c-0.5,0-0.8,0.3-0.8,0.8
				S4.9,11.9,5.5,11.9z M5.5,17h22.1c0.5,0,0.8-0.3,0.8-0.8s-0.3-0.8-0.8-0.8H5.5c-0.5,0-0.8,0.3-0.8,0.8S4.9,17,5.5,17z"/>
		</g>
	</g>
</g>
<g id="Shape_1_copy_2_1_" class="st1">
	<g id="Shape_1_copy_2">
		<g>
			<path class="st2" d="M13.3,26.5c0,0.1,0,0.1,0,0.2c-0.1,0.5-0.1,0.9-0.1,1.4c0,0.4,0,0.7,0.1,1.1l1.4-5.7
				C14,24.4,13.5,25.4,13.3,26.5z M11.7,30.6L11.4,28C11.4,28.9,11.5,29.8,11.7,30.6z M20.8,18.7c-2,0-3.9,0.6-5.4,1.7l-0.8,3.1
				c0.4-0.6,0.9-1.1,1.5-1.5c0.1,0,0.1-0.1,0.2-0.1c1.3-0.9,2.8-1.4,4.5-1.4c4.3,0,7.6,3.4,7.6,7.6c0,4.3-3.4,7.7-7.6,7.7
				c-3.9,0-7-2.8-7.6-6.5l-0.8,3.1c1.5,3,4.7,5.1,8.3,5.1c5.2,0,9.4-4.2,9.4-9.4S25.9,18.7,20.8,18.7z M11.7,25.5l1.8-3.4
				C12.7,23.1,12.1,24.2,11.7,25.5z M19.3,32.9c0.2,0.2,0.3,0.3,0.6,0.3c0.3,0,0.6-0.2,0.7-0.4l5.1-7.6c0.3-0.4,0.2-0.9-0.3-1.2
				s-0.9-0.2-1.2,0.3l-4.5,6.8l-2.6-2.6c-0.3-0.3-0.8-0.3-1.2,0c-0.3,0.3-0.3,0.8,0,1.2L19.3,32.9z"/>
		</g>
	</g>
</g>
</svg>
