<?xml version="1.0" encoding="utf-8"?>
<!-- Generator: Adobe Illustrator 19.0.0, SVG Export Plug-In . SVG Version: 6.00 Build 0)  -->
<svg version="1.1" id="Layer_1" xmlns="http://www.w3.org/2000/svg" xmlns:xlink="http://www.w3.org/1999/xlink" x="0px" y="0px"
	 width="44px" height="41px" viewBox="-12 5 44 41" style="enable-background:new -12 5 44 41;" xml:space="preserve">
<style type="text/css">
	.st0{opacity:0.4;enable-background:new    ;}
	.st1{enable-background:new    ;}
	.st2{fill:#41A2D0;}
</style>
<g id="Shape_1_1_" class="st0">
	<g id="Shape_1">
		<g>
			<path d="M-6.1,34c0.3,0,0.6-0.1,0.8-0.3l4.8-4.7c0.4-0.4,0.4-1.1,0-1.5s-1.1-0.4-1.6,0L-5,30.2V9.5c0-1.3,1.1-2.4,2.4-2.4h25.3
				C24,7.2,25,8.2,25,9.5v3c0,0.6,0.5,1.1,1.1,1.1s1.1-0.5,1.1-1.1v-3c0-2.5-2-4.5-4.6-4.5H-2.6c-2.6,0-4.6,2-4.6,4.5v20.7l-2.9-2.9
				c-0.4-0.4-1.1-0.4-1.6,0c-0.4,0.4-0.4,1.1,0,1.5l4.8,4.7C-6.7,33.9-6.4,34-6.1,34z M31.7,22.1l-4.8-4.7c-0.4-0.4-1.1-0.4-1.5,0
				l-4.8,4.7v1.5c0.2,0.2,0.5,0.3,0.8,0.3s0.6-0.1,0.8-0.3l2.9-2.9v20.7c0,1.3-1.1,2.4-2.4,2.4H-2.6c-1.4,0-2.4-1-2.4-2.3v-3
				c0-0.6-0.5-1.1-1.1-1.1s-1.1,0.5-1.1,1.1v3c0,2.5,2,4.5,4.6,4.5h25.3c2.5,0,4.6-2,4.6-4.5V20.8l2.9,2.9c0.4,0.4,1.1,0.4,1.6,0
				S32.1,22.5,31.7,22.1z"/>
		</g>
	</g>
</g>
<g id="Shape_1_copy_1_" class="st1">
	<g id="Shape_1_copy">
		<g>
			<path class="st2" d="M11.2,24.4H8.7c-0.9,0-1.6-0.8-1.6-1.8s0.7-1.8,1.6-1.8h4.4c0.6,0,1.1-0.5,1.1-1.1c0-0.6-0.5-1.1-1.1-1.1h-2
				V17c0-0.6-0.5-1.1-1.1-1.1S8.9,16.4,8.9,17v1.7H8.8c-2.1,0-3.8,1.8-3.8,4s1.7,4,3.8,4h2.5c0.9,0,1.6,0.8,1.6,1.8
				s-0.7,1.8-1.6,1.8H6.8c-0.6,0-1.1,0.5-1.1,1.1s0.5,1.1,1.1,1.1h2.1V34c0,0.6,0.5,1.1,1.1,1.1s1.1-0.5,1.1-1.1v-1.7h0.2
				c2.1,0,3.8-1.8,3.8-4C15.1,26.2,13.3,24.4,11.2,24.4z"/>
		</g>
	</g>
</g>
</svg>
