<?xml version="1.0" encoding="utf-8"?>
<!-- Generator: Adobe Illustrator 19.0.0, SVG Export Plug-In . SVG Version: 6.00 Build 0)  -->
<svg version="1.1" id="Layer_1" xmlns="http://www.w3.org/2000/svg" xmlns:xlink="http://www.w3.org/1999/xlink" x="0px" y="0px"
	 width="39px" height="40px" viewBox="-15 6 39 40" style="enable-background:new -15 6 39 40;" xml:space="preserve">
<style type="text/css">
	.st0{opacity:0.502;enable-background:new    ;}
	.st1{enable-background:new    ;}
	.st2{fill:#41A2D0;}
</style>
<g id="Shape_1_copy_3_1_" class="st0">
	<g id="Shape_1_copy_3">
		<g>
			<path d="M-8.8,36.8c-0.4,0-0.8,0.3-0.8,0.8c0,0.4,0.3,0.8,0.8,0.8S-8,38-8,37.6C-8,37.2-8.4,36.8-8.8,36.8z M23.7,32.2
				c-0.7-1.5-2.4-2.2-3.9-1.5l0,0l-5,2.3c-0.4,0.2-0.6,0.6-0.4,1s0.6,0.6,1,0.4l5-2.3c0.7-0.3,1.6,0,1.9,0.8c0.2,0.4,0.2,0.8,0,1.1
				c-0.1,0.4-0.4,0.7-0.8,0.8l-10.2,4.6c-1.6,0.7-3.4,0.7-5-0.1l-3.7-1.9c-2-1-4.3-1.1-6.3-0.1h-0.1l-2.8-6.4l3.9-1.7
				c1.8-0.8,3.9-0.9,5.8-0.2l7.5,2.8c0.7,0.3,1,1,0.8,1.7c-0.2,0.7-1,1.1-1.7,0.8l-5.8-2c-0.4-0.1-0.8,0.1-1,0.5
				c-0.2,0.4,0.1,0.9,0.5,1l5.8,2c0.3,0.1,0.6,0.2,0.9,0.2c1.2,0,2.3-0.8,2.7-2c0.5-1.5-0.3-3.1-1.7-3.7l-7.5-2.8
				c-2.3-0.8-4.7-0.8-6.9,0.2l-3.9,1.7c-0.2-0.3-0.5-0.6-0.9-0.8c-0.5-0.2-1-0.2-1.5,0l-5,2.2c-0.2,0.2-0.4,0.5-0.4,0.8v13.6
				c0,0.3,0.1,0.5,0.4,0.7c0.1,0.1,0.2,0.1,0.4,0.1c0.1,0,0.2,0,0.3-0.1l9.7-5c0.5-0.2,0.8-0.6,1-1.1C-3,39.4-3,39-3.1,38.6H-3
				c1.6-0.7,3.4-0.7,5,0.1l3.7,1.9c2,1,4.3,1.1,6.3,0.1l10.2-4.6C23.7,35.5,24.4,33.7,23.7,32.2z M-4.6,39.3c0,0.1-0.1,0.2-0.2,0.2
				l-8.6,4.4v-3.4l2.2-1.1c0.4-0.2,0.5-0.7,0.4-1c-0.2-0.4-0.6-0.5-1-0.4l-1.5,0.8v-6.7l4.5-2c0.1,0,0.2,0,0.3,0
				c0.1,0,0.2,0.1,0.2,0.2l3.8,8.7C-4.6,39.1-4.6,39.2-4.6,39.3z"/>
		</g>
	</g>
</g>
<g id="Forma_1_copy_3_1_" class="st1">
	<g id="Forma_1_copy_3">
		<g>
			<path class="st2" d="M11.3,16.2L11.3,16.2c-0.7-0.4-0.9-0.5-0.9-0.9c0-0.3,0.2-0.5,0.5-0.5s0.5,0.2,0.5,0.5v0.2h1.4v-0.2
				c0-0.5-0.2-1-0.6-1.3c-0.2-0.2-0.4-0.3-0.6-0.4v-1.2h-1.4v1.1c-0.7,0.3-1.2,1-1.2,1.8c0,1.3,1,1.9,1.6,2.2l0,0
				c0.7,0.4,1.1,0.6,1.1,0.9c0,0.4-0.3,0.7-0.7,0.7c-0.4,0-0.7-0.3-0.7-0.7v-0.3H8.9v0.3c0,0.6,0.2,1.1,0.6,1.5
				c0.2,0.2,0.5,0.4,0.8,0.5v1.1h1.4v-1.1c0.3-0.1,0.6-0.3,0.8-0.5c0.4-0.4,0.6-0.9,0.6-1.5s-0.2-1-0.7-1.4
				C12.1,16.6,11.7,16.4,11.3,16.2z M18.7,15.2c-0.7-1-1.6-2-2.7-3c-0.7-0.6-1.3-1-1.9-1.4c1.2-0.2,2.5-0.6,3.4-1.5l-4.6,0.3L14.3,7
				V6H7.7v1l1.6,3c-0.7,0.4-2,1.2-3.3,2.3c-1.1,1-2.1,2-2.7,3C2.4,16.6,2,18,2,19.3c0,1.9,0.6,3.1,1.7,3.9c1.1,0.7,2.7,0.9,4,0.9
				l0,0H14l0,0l0,0c1.4,0,2.9-0.2,4.1-0.9c1.2-0.8,1.8-2,1.8-3.9C20,17.9,19.6,16.5,18.7,15.2z M12.4,7.4l-1.2,2.1h-0.6L9.4,7.4
				C9.4,7.4,12.4,7.4,12.4,7.4z M14.1,22.6H7.8c-1.6,0-2.6-0.2-3.3-0.7C4,21.6,3.4,21,3.4,19.2c0-4.4,6-7.8,7-8.3h1.1
				c1,0.5,7,3.9,7,8.3C18.6,22,17.1,22.5,14.1,22.6z"/>
		</g>
	</g>
</g>
</svg>
