<?xml version="1.0" encoding="utf-8"?>
<!-- Generator: Adobe Illustrator 19.0.0, SVG Export Plug-In . SVG Version: 6.00 Build 0)  -->
<svg version="1.1" id="Layer_1" xmlns="http://www.w3.org/2000/svg" xmlns:xlink="http://www.w3.org/1999/xlink" x="0px" y="0px"
	 width="43px" height="37px" viewBox="-13 7 43 37" style="enable-background:new -13 7 43 37;" xml:space="preserve">
<style type="text/css">
	.st0{opacity:0.4;enable-background:new    ;}
	.st1{enable-background:new    ;}
	.st2{fill:#41A2D0;}
</style>
<g id="Forma_1_1_" class="st0">
	<g id="Forma_1">
		<g>
			<path d="M28.4,12.4L2,7C0.9,6.8-0.2,7.5-0.5,8.5L-1,11.6l30.4,6.2l0.6-3C30.2,13.7,29.5,12.7,28.4,12.4z M17.3,18.6
				c-0.3-1.1-1.5-1.7-2.6-1.4l-5,1.3l-11.8-2.4L-3.4,22l-8.1,2.2c-1.1,0.3-1.8,1.4-1.5,2.5l4.6,15.9c0.3,1.1,1.5,1.7,2.6,1.4l26.2-7
				c1.1-0.3,1.8-1.4,1.5-2.5l-0.8-2.7l2.9,0.6c1.1,0.2,2.2-0.5,2.5-1.5l1.9-8.5l-10.6-2.2L17.3,18.6z M-11.3,26.2
				c0-0.2,0.1-0.4,0.3-0.5l7.2-1.9l17.1-4.6l1.8-0.5h0.1c0.1,0,0.3,0.1,0.4,0.3l0.2,0.8l0.7,2.4l-26.9,7.1L-11.3,26.2z M20.3,26.6
				l0.6-3c0.1-0.4,0.6-0.7,1-0.6l3.1,0.6c0.5,0.1,0.8,0.5,0.7,1l-0.6,3c-0.1,0.4-0.6,0.7-1,0.6L21,27.6
				C20.5,27.5,20.2,27.1,20.3,26.6z M20.2,34.9c0,0.1,0,0.2,0,0.3c0,0.1-0.1,0.1-0.2,0.2l-26.2,7h-0.1c-0.1,0-0.3-0.1-0.4-0.3
				l-2.7-9.3l26.9-7.2l1.6,5.7L20.2,34.9z M-2,35.5c-0.1-0.4-0.6-0.7-1-0.6l-3.1,0.8c-0.5,0.1-0.7,0.6-0.6,1l0.8,3
				c0.1,0.4,0.6,0.7,1,0.6l3.1-0.8c0.5-0.1,0.7-0.6,0.6-1L-2,35.5z"/>
		</g>
	</g>
</g>
<g id="Forma_1_copy_2_1_" class="st1">
	<g id="Forma_1_copy_2">
		<g>
			<path class="st2" d="M21.8,34.4L21,31.7L20,29v-2l-2.3-6.9l-0.5-1.6c-0.3-1.1-1.5-1.7-2.6-1.4l-18,4.9l-8.1,2.2
				c-1.1,0.3-1.8,1.4-1.5,2.5l4.6,15.9c0.3,1.1,1.5,1.7,2.6,1.4l26.2-7C21.5,36.6,22.2,35.5,21.8,34.4z M-11.3,26.2
				c0-0.2,0.1-0.4,0.3-0.5l7.2-1.9l17.1-4.6l1.8-0.5h0.1c0.1,0,0.3,0.1,0.4,0.3l0.2,0.8l0.7,2.4l-26.9,7.1L-11.3,26.2z M20.2,35.2
				c0,0.1-0.1,0.1-0.2,0.2l-26.2,7h-0.1c-0.1,0-0.3-0.1-0.4-0.3l-2.7-9.3l26.9-7.2l1.6,5.7l1,3.5C20.2,35,20.2,35.1,20.2,35.2z
				 M-2,35.5c-0.1-0.4-0.6-0.7-1-0.6l-3.1,0.8c-0.5,0.1-0.7,0.6-0.6,1l0.8,3c0.1,0.4,0.6,0.7,1,0.6l3.1-0.8c0.5-0.1,0.7-0.6,0.6-1
				L-2,35.5z"/>
		</g>
	</g>
</g>
</svg>
